<?xml version="1.0" encoding="utf-8"?>
<!-- Generator: Adobe Illustrator 22.1.0, SVG Export Plug-In . SVG Version: 6.00 Build 0)  -->
<svg version="1.1" id="Laag_1" xmlns="http://www.w3.org/2000/svg" xmlns:xlink="http://www.w3.org/1999/xlink" x="0px" y="0px"
	 viewBox="0 0 102 36" style="enable-background:new 0 0 102 36;" xml:space="preserve">
<style type="text/css">
	.st0{fill:#F2C81F;}
	.st1{fill:#FEFEFE;}
	.st2{fill:#212121;}
</style>
<title>Group</title>
<desc>Created with Sketch.</desc>
<g id="Page-1">
	<g id="Artboard" transform="translate(-78.000000, -131.000000)">
		<g id="Group" transform="translate(78.000000, 131.000000)">
			<path id="Fill-1" class="st0" d="M35.8,18c0,9.9-8,18-17.9,18C8,36,0,27.9,0,18S8,0,17.9,0C27.8,0,35.8,8.1,35.8,18z"/>
			<polyline id="Fill-3" class="st1" points="10.9,30.7 13.9,30.7 23.8,5.3 20.6,5.4 			"/>
			<polyline id="Fill-5" class="st1" points="24.6,30.7 21.6,30.7 11.7,5.3 14.9,5.4 			"/>
			<polygon id="Fill-7" class="st0" points="15.1,25.6 23.8,25.6 23.8,10.4 15.1,10.4 			"/>
			<path id="Fill-9" class="st1" d="M23.2,23c-0.1,0.3-0.3,0.5-0.4,0.7c-0.2,0.2-0.4,0.4-0.7,0.5c-0.3,0.2-0.6,0.3-0.8,0.4
				s-0.6,0.2-1,0.2c-0.4,0.1-0.7,0.1-1,0.2c-0.3,0-0.6,0.1-1,0.1c-0.4,0-0.7,0-0.9,0c-0.2,0-0.5,0-0.8,0c-0.3,0-0.6,0-0.7,0v-6
				c0.1,0,0.4,0,0.8,0c0.5,0,0.8,0,1.1,0c0.3,0,0.7,0,1.2,0.1c0.5,0,1,0.1,1.3,0.2c0.4,0.1,0.7,0.2,1.2,0.3c0.4,0.1,0.8,0.3,1,0.5
				c0.3,0.2,0.5,0.5,0.7,0.8c0.2,0.3,0.3,0.7,0.3,1.1C23.3,22.4,23.3,22.7,23.2,23L23.2,23z M15.8,10.9c0.1,0,0.3,0,0.7,0
				c0.4,0,0.7,0,1,0c0.3,0,0.6,0,1,0c0.4,0,0.8,0.1,1.1,0.1c0.3,0.1,0.6,0.2,1,0.3c0.4,0.1,0.6,0.3,0.8,0.5c0.2,0.2,0.4,0.4,0.5,0.7
				c0.1,0.3,0.2,0.6,0.2,1c0,0.3-0.1,0.6-0.2,0.9c-0.1,0.3-0.3,0.5-0.5,0.7c-0.2,0.2-0.4,0.3-0.7,0.5c-0.2,0.1-0.5,0.2-0.9,0.3
				c-0.3,0.1-0.6,0.1-0.9,0.2c-0.3,0-0.6,0.1-1,0.1c-0.4,0-0.7,0-0.9,0c-0.2,0-0.5,0-0.8,0c-0.3,0-0.5,0-0.6,0L15.8,10.9L15.8,10.9z
				 M13,7.8c-0.4,0-1,0-1.7,0l-3.7,0v2.9h2c0.9,0,1.4,0.4,1.6,1.2V17c0.1,0,0.2,0,0.3,0h-0.3v7.1c-0.1,0.6-0.4,0.9-1,0.9h-2
				l-0.5,3.2h3.5c0.2,0,0.5,0,1,0c0.4,0,0.7,0,1,0l2.7,0.1c0.5,0,1.2,0,2.1,0l2.7-0.1c1,0,1.8-0.1,2.6-0.3c0.7-0.1,1.5-0.3,2.1-0.6
				c0.7-0.3,1.2-0.6,1.7-1c0.5-0.4,0.8-0.9,1.1-1.6c0.3-0.6,0.5-1.4,0.6-2.2c0.2-1.6-0.1-2.9-0.8-3.8c-0.7-0.9-1.7-1.5-3.1-1.8
				c1.7-0.9,2.5-2.4,2.3-4.6c-0.1-0.8-0.3-1.5-0.6-2c-0.4-0.6-0.8-1-1.5-1.4c-0.6-0.3-1.3-0.6-2-0.8c-0.7-0.2-1.5-0.3-2.5-0.4H13z"
				/>
			<path id="Fill-10" class="st2" d="M48.1,24.3v-5.2h6.8h0h0h-0.8l1,0c1.4,0.1,2.5,1.2,2.5,2.6s-1.1,2.5-2.5,2.6 M53.9,10.8
				c1.3,0,2.4,1,2.4,2.4s-1.1,2.1-2.4,2.2l-0.9,0h-4.9v-4.5 M48.1,7.3h-0.9h-3v21.6h3h0.9h5l2,0c3.7-0.2,6.6-3.1,6.6-6.8
				c0-2.2-1.1-4.1-2.7-5.4c0.7-1,1.1-1.9,1.1-3.2c0-3.2-2.5-5.9-5.8-6.2"/>
			<path id="Fill-11" class="st2" d="M77.2,21.8c-0.7,1.6-2.5,2.7-4.2,2.7c-2.1,0-4.3-1.7-4.5-3.8l0-5.4c0.2-2.1,2.4-3.7,4.5-3.7
				c1.8,0,3.6,1.1,4.2,2.7h4.5c-0.7-4-4.5-7.1-8.7-7.1c-4.5,0-8.6,3.6-8.8,8.1l0,5.4c0.1,4.5,4.3,8.2,8.8,8.2c4.2,0,8-3.1,8.7-7.1
				H77.2z"/>
			<polygon id="Fill-12" class="st0" points="92.4,13.1 88.8,7.3 84.2,7.2 90.1,16.9 			"/>
			<polygon id="Fill-13" class="st0" points="93,21.9 95.3,18.1 93.1,14.3 90.8,18.1 			"/>
			<polygon id="Fill-14" class="st0" points="93.7,23 97.3,28.9 101.9,28.9 96.1,19.2 			"/>
			<polygon id="Fill-15" class="st2" points="101.9,7.2 88.8,28.9 84.2,28.9 97.3,7.3 			"/>
		</g>
	</g>
</g>
</svg>
