<?xml version="1.0" encoding="UTF-8"?>
<svg width="102px" height="36px" viewBox="0 0 102 36" version="1.1" xmlns="http://www.w3.org/2000/svg" xmlns:xlink="http://www.w3.org/1999/xlink">
    <!-- Generator: Sketch 47.1 (45422) - http://www.bohemiancoding.com/sketch -->
    <title>Group</title>
    <desc>Created with Sketch.</desc>
    <defs></defs>
    <g id="Page-1" stroke="none" stroke-width="1" fill="none" fill-rule="evenodd">
        <g id="Artboard" transform="translate(-78.000000, -131.000000)">
            <g id="Group" transform="translate(78.000000, 131.000000)">
                <path d="M35.7626398,17.9971475 C35.7626398,27.9366559 27.7569281,35.9942492 17.8812669,35.9942492 C8.00575721,35.9942492 4.54680535e-05,27.9366559 4.54680535e-05,17.9971475 C4.54680535e-05,8.05763898 8.00575721,4.57627119e-05 17.8812669,4.57627119e-05 C27.7569281,4.57627119e-05 35.7626398,8.05763898 35.7626398,17.9971475 Z" id="Fill-1" fill="#F2C81F"></path>
                <polyline id="Fill-3" fill="#FEFEFE" points="10.9342939 30.6639763 13.9169982 30.6639763 23.8125138 5.34011186 20.6317204 5.40707797"></polyline>
                <polyline id="Fill-5" fill="#FEFEFE" points="24.6162223 30.6639763 21.6336695 30.6639763 11.7380024 5.34011186 14.9187958 5.40707797"></polyline>
                <polygon id="Fill-7" fill="#F2C81F" points="15.118734 25.5705254 23.812529 25.5705254 23.812529 10.4142203 15.118734 10.4142203"></polygon>
                <path d="M23.1744152,22.9528373 C23.0624122,23.2248203 22.9188847,23.4611085 22.7429233,23.6621593 C22.5665073,23.8627525 22.3346202,24.0401593 22.0471105,24.1934644 C21.7594493,24.3473797 21.4805786,24.4712441 21.2104984,24.5659729 C20.9404181,24.6607017 20.6144122,24.742922 20.2332383,24.8141593 C19.8511551,24.8850915 19.5168134,24.9351254 19.228849,24.9648712 C18.9413394,24.9943119 18.597904,25.0178034 18.1985429,25.0356508 C17.799485,25.0531932 17.4881804,25.0620407 17.2652354,25.0620407 C17.0419872,25.0620407 16.7600853,25.0589898 16.4196811,25.0531932 C16.0789738,25.0475492 15.8619397,25.0446508 15.7678208,25.0446508 L15.7678208,19.052939 C15.8617881,19.052939 16.1405073,19.0471424 16.604433,19.034939 C17.0685103,19.0231932 17.446956,19.0175492 17.7403765,19.0175492 C18.0341001,19.0175492 18.4392205,19.034939 18.9560407,19.0707864 C19.4725578,19.1058712 19.9067777,19.1591085 20.2593067,19.2298881 C20.611381,19.3008203 20.9957376,19.4100407 21.4128312,19.5580068 C21.8294701,19.7055153 22.1672978,19.8856678 22.4257079,20.0984644 C22.684118,20.3115661 22.9013037,20.5830915 23.0772651,20.9139559 C23.2536811,21.2449729 23.3417376,21.6229729 23.3417376,22.0487186 C23.3417376,22.3798881 23.2859634,22.6810068 23.1744152,22.9528373 L23.1744152,22.9528373 Z M15.7681239,10.8810915 C15.850118,10.8810915 16.0823082,10.8780407 16.4637851,10.8722441 C16.8455652,10.8661424 17.1624776,10.8601932 17.4149768,10.8543966 C17.6674761,10.8486 18.0078802,10.8632441 18.436644,10.8987864 C18.8652562,10.9343288 19.2262725,10.9816169 19.519693,11.0406508 C19.8132651,11.0995322 20.1363914,11.1971593 20.4881626,11.3330746 C20.8406915,11.4688373 21.1221388,11.6343458 21.3335652,11.8292949 C21.5449917,12.0242441 21.7239842,12.2724305 21.8705429,12.5738542 C22.0175563,12.875278 22.091063,13.220939 22.091063,13.6108373 C22.091063,13.9417017 22.0383201,14.2431254 21.9325311,14.5151085 C21.8273483,14.7867864 21.6683617,15.0143797 21.4570868,15.1975831 C21.2459634,15.3807864 21.0284746,15.5404983 20.805378,15.676261 C20.5822814,15.8118712 20.2973483,15.9215492 19.9511848,16.0042271 C19.6048698,16.0869051 19.3026588,16.1518881 19.0444003,16.1991763 C18.7859902,16.2464644 18.4634701,16.2789559 18.0757792,16.2964983 C17.6882398,16.3141932 17.3945162,16.3262441 17.195063,16.3321932 C16.9953067,16.3378373 16.7224984,16.3378373 16.3760318,16.3321932 C16.0294137,16.3262441 15.8272324,16.3231932 15.7682755,16.3231932 L15.7682755,10.8810915 L15.7681239,10.8810915 Z M13.00306,7.77944746 C12.6155207,7.79134576 12.0461091,7.79729492 11.2946737,7.79729492 L7.56083715,7.77944746 L7.56083715,10.6866 L9.51566033,10.6866 C10.4080467,10.6866 10.9306262,11.0885492 11.0832473,11.8919898 L11.0832473,16.9794305 C11.2008579,16.9794305 11.2946737,16.9855322 11.3651492,16.997278 L11.0832473,16.997278 L11.0832473,24.1232949 C10.9892799,24.7259898 10.6488758,25.027261 10.0617316,25.027261 L8.10675691,25.027261 L7.56083715,28.2712271 L11.0833988,28.2712271 C11.306647,28.2712271 11.6293186,28.274278 12.0521715,28.2797695 C12.4747212,28.2857186 12.7916336,28.2886169 13.00306,28.2886169 L15.7158357,28.3417017 C16.2088609,28.3536 16.9251343,28.3595492 17.8643527,28.3595492 L20.5765221,28.2886169 C21.5395355,28.2414814 22.3935771,28.1531593 23.1391016,28.0225831 C23.8846262,27.8924644 24.5980199,27.6889729 25.2789798,27.4110407 C25.9596366,27.133261 26.5288966,26.7876 26.987063,26.3739051 C27.4449263,25.9606678 27.8235236,25.4345492 28.1233097,24.7961593 C28.4221863,24.1576169 28.6133037,23.4193119 28.6952978,22.5798712 C28.8485251,20.9380576 28.5842042,19.6733288 27.9033958,18.7867525 C27.2222844,17.9007864 26.1948579,17.2921424 24.8209649,16.961278 C26.5705756,16.0631085 27.3392889,14.5386 27.1283171,12.3876 C27.0579932,11.6074983 26.8435355,10.9315831 26.4853988,10.3584814 C26.126959,9.78537966 25.6430273,9.32454915 25.0319367,8.97614237 C24.4216039,8.62712542 23.7577703,8.36139661 23.0419516,8.17819322 C22.3256782,7.99498983 21.5036158,7.86212542 20.5760675,7.77944746 L13.00306,7.77944746 Z" id="Fill-9" fill="#FEFEFE"></path>
                <path d="M48.1127938,24.3018763 L48.1127938,19.0740966 L54.874348,19.0740966 L54.8748027,19.0740966 L54.8752574,19.0740966 L54.1042707,19.0740966 L55.0560686,19.0919441 C56.4449661,19.1846898 57.5454446,20.3051136 57.5454446,21.6879102 C57.5454446,23.0707068 56.4449661,24.190978 55.0560686,24.2838763 M53.8663212,10.7617576 C55.186562,10.8064525 56.2450582,11.8088085 56.2450582,13.111978 C56.2450582,14.4151475 55.186562,15.2307915 53.8663212,15.2754864 L52.9948502,15.2838763 L48.1127938,15.2838763 L48.1127938,10.7535203 M48.1127938,7.25740169 L47.1735753,7.25740169 L44.1713198,7.25740169 L44.1713198,28.8761644 L47.1735753,28.8761644 L48.1127938,28.8761644 L53.1624758,28.8761644 L55.2086897,28.8596898 C58.8873584,28.6880797 61.8185322,25.722961 61.8185322,22.0799441 C61.8185322,19.8905034 60.756247,17.9484864 59.1136377,16.7054186 C59.7903539,15.7114525 60.1865322,14.7577576 60.1865322,13.4736559 C60.1865322,10.2257237 57.6627522,7.60763898 54.4299736,7.28943559" id="Fill-10" fill="#FEFEFE"></path>
                <path d="M77.2494196,21.7825475 C76.5952859,23.3685305 74.7850511,24.5116831 73.0261952,24.5116831 C70.8934404,24.5116831 68.6808134,22.8328017 68.5512294,20.7188695 L68.561384,15.319022 C68.7388609,13.2529881 70.9273899,11.6261237 73.0261952,11.6261237 C74.7830808,11.6261237 76.5978624,12.7677508 77.2483587,14.3509881 L81.7402993,14.3509881 C81.0513067,10.3336322 77.1942517,7.25731017 73.0261952,7.25731017 C68.5283438,7.25731017 64.3855979,10.8373271 64.2034226,15.319022 L64.2025132,20.7188695 C64.3337643,25.2451068 68.497274,28.8762254 73.0261952,28.8762254 C77.1931908,28.8762254 81.0422131,25.7994458 81.7342368,21.7825475 L77.2494196,21.7825475 Z" id="Fill-11" fill="#FEFEFE"></path>
                <polygon id="Fill-12" fill="#F2C81F" points="92.3515578 13.097761 88.831118 7.26896441 84.2270229 7.24577797 90.0501165 16.9081169"></polygon>
                <polygon id="Fill-13" fill="#F2C81F" points="93.0439453 21.8756593 95.3484178 18.0598119 93.0521296 14.2576932 90.752507 18.0733881"></polygon>
                <polygon id="Fill-14" fill="#F2C81F" points="93.7493519 23.046239 97.2699432 28.8878492 101.874038 28.8646627 96.0521572 19.2250525"></polygon>
                <polygon id="Fill-15" fill="#FEFEFE" points="101.874099 7.24580847 88.8311331 28.8877576 84.2268865 28.8645712 97.2698523 7.26899492"></polygon>
            </g>
        </g>
    </g>
</svg>