<?xml version="1.0" encoding="UTF-8"?>
<svg width="292px" height="598px" viewBox="0 0 292 598" version="1.1" xmlns="http://www.w3.org/2000/svg" xmlns:xlink="http://www.w3.org/1999/xlink">
    <!-- Generator: sketchtool 46.2 (44496) - http://www.bohemiancoding.com/sketch -->
    <title>80DB56D1-85AA-4310-AC18-14DC8F00C26C</title>
    <desc>Created with sketchtool.</desc>
    <defs></defs>
    <g id="Page-1" stroke="none" stroke-width="1" fill="none" fill-rule="evenodd">
        <g id="Magestore-MobileApp" transform="translate(-1222.000000, -2261.000000)" stroke="#FFFFFF">
            <g id="bgmobile" transform="translate(1222.000000, 2261.000000)">
                <g id="Group-14" transform="translate(0.000000, 0.503000)">
                    <path d="M149.6411,16.8137 C149.6411,18.9167 147.9361,20.6217 145.8331,20.6217 C143.7301,20.6217 142.0251,18.9167 142.0251,16.8137 C142.0251,14.7107 143.7301,13.0057 145.8331,13.0057 C147.9361,13.0057 149.6411,14.7107 149.6411,16.8137 Z" id="Stroke-2"></path>
                    <path d="M105.6183,35.0912 C105.6183,38.0352 103.2313,40.4222 100.2873,40.4222 C97.3433,40.4222 94.9563,38.0352 94.9563,35.0912 C94.9563,32.1472 97.3433,29.7602 100.2873,29.7602 C103.2313,29.7602 105.6183,32.1472 105.6183,35.0912 Z" id="Stroke-4"></path>
                    <path d="M166.3004,37.376 L125.3664,37.376 C123.6834,37.376 122.3204,36.012 122.3204,34.33 C122.3204,32.647 123.6834,31.283 125.3664,31.283 L166.3004,31.283 C167.9824,31.283 169.3464,32.647 169.3464,34.33 C169.3464,36.012 167.9824,37.376 166.3004,37.376 Z" id="Stroke-6"></path>
                    <path d="M289.8713,125.7177 L288.2833,125.7177 L288.2833,52.5117 L290.7033,52.5117 L290.7033,43.4687 L288.2833,43.4687 L288.2833,41.1497 C288.2833,18.9737 270.3063,0.9967 248.1303,0.9967 L43.8593,0.9967 C21.6833,0.9967 3.7063,18.9737 3.7063,41.1497 L3.7063,43.4687 L0.8723,43.4687 L0.8723,52.5117 L3.7063,52.5117 L3.7063,72.4077 L2.0473,72.4077 C1.3313,72.4077 0.7513,72.9877 0.7513,73.7037 L0.7513,97.0057 C0.7513,97.7217 1.3313,98.3017 2.0473,98.3017 L3.7063,98.3017 L3.7063,125.7547 C3.6433,125.7457 3.5873,125.7177 3.5223,125.7177 L1.7953,125.7177 C1.0803,125.7177 0.5003,126.2977 0.5003,127.0127 L0.5003,168.5937 C0.5003,169.3087 1.0803,169.8887 1.7953,169.8887 L3.5223,169.8887 C3.5873,169.8887 3.6433,169.8607 3.7063,169.8517 L3.7063,180.5507 L2.0473,180.5507 C1.3313,180.5507 0.7513,181.1307 0.7513,181.8457 L0.7513,223.4257 C0.7513,224.1417 1.3313,224.7217 2.0473,224.7217 L3.7063,224.7217 L3.7063,546.1977 L0.9313,546.1977 L0.9313,555.2407 L3.7063,555.2407 L3.7063,556.3467 C3.7063,578.5227 21.6833,596.4997 43.8593,596.4997 L248.1303,596.4997 C270.3063,596.4997 288.2833,578.5227 288.2833,556.3467 L288.2833,555.1457 L289.8953,555.1457 L289.8953,546.1027 L288.2833,546.1027 L288.2833,168.3657 L289.8713,168.3657 C290.5863,168.3657 291.1663,167.7857 291.1663,167.0697 L291.1663,127.0127 C291.1663,126.2977 290.5863,125.7177 289.8713,125.7177 Z" id="Stroke-8"></path>
                    <path d="M168.7866,559.9168 C168.7866,572.5938 158.5096,582.8698 145.8336,582.8698 C133.1566,582.8698 122.8796,572.5938 122.8796,559.9168 C122.8796,547.2398 133.1566,536.9638 145.8336,536.9638 C158.5096,536.9638 168.7866,547.2398 168.7866,559.9168 Z" id="Stroke-10"></path>
                </g>
            </g>
        </g>
    </g>
</svg>