<?xml version="1.0" encoding="UTF-8"?>
<svg width="1920px" height="824px" viewBox="0 0 1920 824" version="1.1" xmlns="http://www.w3.org/2000/svg" xmlns:xlink="http://www.w3.org/1999/xlink">
    <!-- Generator: sketchtool 46.2 (44496) - http://www.bohemiancoding.com/sketch -->
    <title>76DB5007-3885-40C5-9642-892C0CB5EC27</title>
    <desc>Created with sketchtool.</desc>
    <defs>
        <rect id="path-1" x="0" y="0" width="2145" height="824"></rect>
    </defs>
    <g id="Page-1" stroke="none" stroke-width="1" fill="none" fill-rule="evenodd">
        <g id="Magestore-MobileApp" transform="translate(0.000000, -1251.000000)">
            <g id="bgslide2" transform="translate(-187.000000, 1251.000000)">
                <mask id="mask-2" fill="white">
                    <use xlink:href="#path-1"></use>
                </mask>
                <use id="Mask" fill="#FFFFFF" xlink:href="#path-1"></use>
                <g id="Page-1" opacity="0.3" mask="url(#mask-2)">
                    <g transform="translate(27.000000, 73.000000)">
                        <g id="Group-16" stroke-width="1" fill="none" transform="translate(114.000000, 0.000000)">
                            <polygon id="Fill-1" fill="#C7CEEF" points="1417.27742 0 1417.27742 33.1599535 1375.83449 33.1599535 1375.83449 416.558898 1338.53771 416.558898 1338.53771 373.040928 1212.14205 373.040928 1212.14205 416.558898 1172.77531 416.558898 1172.77531 41.4476103 1149.98387 41.4476103 1031.87742 174.084316 1031.87742 493.23993 961.423813 493.23993 961.423813 474.588039 961.423813 370.96435 942.778534 370.96435 942.778534 281.851833 890.976423 281.851833 890.976423 449.718851 837.10434 449.718851 837.10434 370.96435 741.789326 370.96435 741.789326 441.428086 654.763519 441.428086 654.763519 95.3329233 623.682874 95.3329233 623.682874 53.8822043 605.034487 53.8822043 605.034487 8.29076553 586.3861 8.29076553 586.3861 55.9556728 565.667742 55.9556728 565.667742 93.2625634 538.730147 93.2625634 538.730147 412.411961 520.08176 412.411961 520.08176 458.009617 385.4 458.009617 385.4 491.166462 331.52481 491.166462 331.52481 281.851833 304.590323 281.851833 304.590323 259.053005 229.996774 259.053005 229.996774 283.922193 200.989208 283.922193 200.989208 642.451949 136.754839 642.451949 0 887 1927 887 1927 690.119965 1927 576.135151 1877.27097 576.135151 1877.27097 462.150337 1825.46575 462.150337 1825.46575 265.270302 1806.82047 246.618411 1709.43548 246.618411 1690.78399 261.126473 1690.78399 426.920023 1618.26352 426.920023 1618.26352 391.68971 1543.66997 391.68971 1543.66997 35.2303134 1502.23015 35.2303134 1502.23015 0"></polygon>
                        </g>
                        <polygon id="Fill-2" fill="#AFB9EF" points="872 744.497 872.75 744.497 872.75 743 872 743"></polygon>
                        <g id="Group-9" stroke-width="1" fill="none" transform="translate(0.000000, 213.000000)">
                            <path d="M2138.61364,588.936303 L2138.61364,520.529113 L2105.45558,520.529113 L2105.45558,367.129098 L2059.86363,367.129098 L2059.86363,458.340758 L2012.20144,458.340758 L2012.20144,427.246581 L1966.6095,427.246581 L1966.6095,319.452396 L1877.50207,319.452396 L1877.50207,273.849675 L1746.94628,273.849675 L1746.94628,313.23667 L1686.85021,313.23667 L1686.85021,259.338023 L1630.89773,259.338023 L1630.89773,132.887332 L1608.10331,132.887332 L1531.42665,184.711997 L1531.42665,236.536663 L1483.76447,236.536663 L1483.76447,288.361328 L1434.02893,288.361328 L1434.02893,137.035295 L1409.16116,137.035295 L1409.16116,112.159953 L1390.51033,112.159953 L1390.51033,134.961313 L1365.64257,134.961313 L1365.64257,367.129098 L1295.18285,367.129098 L1295.18285,267.63084 L1216.43595,267.63084 L1216.43595,321.526378 L1114.89153,321.526378 L1114.89153,226.169864 L1094.17046,226.169864 L1094.17046,205.442485 L1038.21798,205.442485 L1038.21798,224.098992 L1021.6374,224.098992 L1021.6374,313.23667 L995.112813,313.23667 L995.112813,241.331385 C995.187416,233.259336 995.196741,224.767516 995.112813,215.974083 L995.112813,210.883966 L995.05686,210.883966 C993.797929,117.24696 981.69976,-5.92018572 926.306805,0.220914312 C881.684703,5.16488852 872.458761,122.318421 871.902344,210.883966 L871.784222,210.883966 L871.784222,309.088707 L839.275832,309.088707 L839.275832,201.294522 L708.716938,201.294522 L708.716938,307.017834 L629.97004,307.017834 L629.97004,356.768518 L605.102271,356.768518 L605.102271,141.180149 L582.307853,141.180149 L582.307853,83.1366478 L574.01756,83.1366478 L574.01756,141.180149 L547.076442,141.180149 L547.076442,358.839391 L474.546486,358.839391 L474.546486,307.017834 L418.594006,307.017834 L418.594006,282.139383 L343.9907,282.139383 L343.9907,309.088707 L265.243802,309.088707 L265.243802,443.829106 L219.651857,443.829106 L219.651857,649.050676 L29,649.050676 L29,671.855146 L2207,676 L2207,588.936303 L2138.61364,588.936303 Z" id="Fill-3" fill="#AFB9EF"></path>
                            <polygon id="Fill-5" fill="#9BA9EF" points="37 664.107143 37 651.658163 167.553495 651.658163 167.553495 547.397959 167.553495 527.168367 234.384451 527.168367 234.384451 396.454082 291.890157 396.454082 291.890157 527.168367 332.299572 527.168367 332.299572 480.484694 352.50428 480.484694 352.50428 455.586735 484.611983 455.586735 484.611983 480.484694 504.81669 480.484694 504.81669 527.168367 582.527104 527.168367 582.527104 432.244898 622.936519 432.244898 622.936519 527.168367 661.791726 527.168367 661.791726 396.454082 678.888017 396.454082 678.888017 377.780612 812.549929 377.780612 812.549929 396.454082 829.64622 396.454082 829.64622 447.806122 874.71826 447.806122 874.71826 500.714286 960.199715 500.714286 960.199715 531.836735 1090.75321 531.836735 1090.75321 401.122449 1143.59629 401.122449 1143.59629 374.668367 1170.01783 374.668367 1170.01783 401.122449 1222.86091 401.122449 1222.86091 466.479592 1266.37874 466.479592 1266.37874 506.938776 1437.34165 506.938776 1437.34165 382.44898 1625.40086 382.44898 1625.40086 433.80102 1754.40014 433.80102 1754.40014 477.372449 1816.56847 477.372449 1816.56847 385.561224 1841.43581 385.561224 1841.43581 370 1897.3873 370 1897.3873 385.561224 1919.14622 385.561224 1919.14622 477.372449 1982.86876 477.372449 1982.86876 533.392857 2046.5913 533.392857 2046.5913 508.494898 2083.8923 508.494898 2083.8923 567.627551 2160.0485 567.627551 2160.0485 645.433673 2216 645.433673 2216 662.55102 2216 675 37 675"></polygon>
                            <polygon id="Fill-7" fill="#8697EF" points="2208.95839 674 0 674 0 632.505128 80.8155128 632.505128 80.8155128 599.312964 140.911172 599.312964 140.911172 499.73025 190.643795 499.73025 190.643795 599.312964 246.586779 599.312964 246.586779 551.594172 257.75797 551.594172 257.75797 540.11104 328.782373 540.11104 328.782373 551.594172 338.281304 551.594172 338.281304 598.27357 360.039326 598.27357 360.039326 528.254473 395.784649 528.254473 395.784649 601.385529 406.663661 601.385529 406.663661 578.045831 439.300695 578.045831 439.300695 537.590353 487.479173 537.590353 487.479173 593.60563 538.765941 593.60563 538.765941 480.019096 565.186397 480.019096 565.186397 464.459297 701.951111 464.459297 701.951111 484.687036 722.15499 484.687036 722.15499 599.829549 750.12959 599.829549 750.12959 571.821911 776.550046 571.821911 776.550046 599.829549 804.524647 599.829549 804.524647 557.818092 866.690426 557.818092 866.690426 601.385529 866.690426 613.833369 902.435749 613.833369 927.302061 613.833369 927.302061 420.891859 945.951794 420.891859 945.951794 410 975.48054 410 975.48054 422.447839 992.576129 422.447839 992.576129 576.489851 1054.74191 576.489851 1054.74191 489.354976 1116.90769 489.354976 1116.90769 543.814273 1258.33483 543.814273 1258.33483 601.385529 1320.50061 601.385529 1320.50061 461.347337 1391.99126 461.347337 1391.99126 571.821911 1441.72388 571.821911 1441.72388 604.497489 1491.45651 604.497489 1491.45651 576.489851 1516.32282 576.489851 1516.32282 501.802815 1545.85156 501.802815 1545.85156 481.575076 1674.84555 481.575076 1674.84555 501.802815 1702.82016 501.802815 1702.82016 585.82573 1727.68647 585.82573 1727.68647 610.721409 1758.76936 610.721409 1758.76936 551.594172 1900.1965 551.594172 1900.1965 584.26975 2022.97392 584.26975 2022.97392 626.281208 2091.35627 626.281208 2091.35627 602.941509 2131.76403 602.941509 2131.76403 626.281208 2183.0508 626.281208 2183.0508 654.288846 2239 654.288846 2239 674"></polygon>
                        </g>
                    </g>
                </g>
            </g>
        </g>
    </g>
</svg>