<svg xmlns="http://www.w3.org/2000/svg" width="45" height="43" viewBox="0 0 45 43">
    <path fill="#5C3EAC" fill-rule="evenodd" d="M22.455 6.636L6.857 13.29c.245.116.403.196.567.267 3.364 1.455 6.726 2.916 10.098 4.353.367.157.482.344.48.732-.018 2.546-.01 5.092-.011 7.639 0 .12-.012.24-.021.405h-4.236l8.795 8.736 8.734-8.693h-4.231c-.016-.2-.038-.349-.038-.499-.003-2.546.007-5.093-.015-7.64-.003-.389.155-.537.483-.677 3.37-1.442 6.734-2.9 10.1-4.353.155-.067.309-.14.577-.263l-15.603-6.66c.124-.148.202-.256.295-.348 2.031-2.025 4.066-4.044 6.091-6.074.21-.21.372-.272.669-.144 4.973 2.133 9.951 4.252 14.928 6.376.11.047.214.106.318.158L38.2 13.203l6.705 6.756c-1.936.835-3.822 1.65-5.708 2.461-1.019.439-1.016.437-1.015 1.515 0 3.733-.008 7.465.006 11.198.001.386-.108.568-.478.725-4.95 2.096-9.89 4.217-14.842 6.312a1.11 1.11 0 0 1-.78-.01c-4.935-2.088-9.86-4.201-14.796-6.29-.392-.165-.497-.365-.496-.768.016-3.872.002-7.745.02-11.617.002-.428-.124-.638-.528-.807-2.043-.855-4.07-1.745-6.12-2.63l6.677-6.561L0 6.707c.235-.131.342-.205.46-.255C5.437 4.328 10.415 2.207 15.39.08c.247-.106.413-.134.634.089 2.059 2.07 4.133 4.126 6.2 6.187.07.07.127.152.231.28"/>
</svg>
