<svg xmlns="http://www.w3.org/2000/svg" width="43" height="43" viewBox="0 0 43 43">
    <g fill="#2A3297" fill-rule="evenodd">
        <path d="M0 42.95V1.697h29.753c-.751.749-1.491 1.4-2.124 2.143-.531.624-1.124.79-1.92.787-7.412-.03-14.824-.018-22.237-.018h-.52v35.41H38.36v-.563c0-7.613.002-15.225-.009-22.838 0-.353.104-.597.355-.84.847-.823 1.67-1.67 2.57-2.574V42.95H0z"/>
        <path d="M32.72 7.363L16.856 22.826l3.37 3.064L35.744 10.38l2.023 2.024L20.08 30.082l-7.238-7.16 17.658-17.79 2.22 2.231M42.97 7.181l-4.03 4.042-7.184-7.183L35.803 0l7.168 7.181M11.818 23.994l7.245 7.248c-1.072.393-2.16.794-3.252 1.192-1.847.672-3.694 1.342-5.542 2.012-.144.052-.291.096-.437.145-.444.148-.865.106-1.198-.235-.343-.352-.302-.78-.144-1.209.7-1.902 1.402-3.803 2.096-5.707.42-1.15.825-2.306 1.232-3.446"/>
    </g>
</svg>
