<?xml version="1.0" encoding="UTF-8"?>
<svg width="62px" height="58px" viewBox="0 0 62 58" version="1.1" xmlns="http://www.w3.org/2000/svg" xmlns:xlink="http://www.w3.org/1999/xlink">
    <!-- Generator: sketchtool 48.2 (47327) - http://www.bohemiancoding.com/sketch -->
    <title>603D4E8B-9B29-43B9-91E2-A14254762B98</title>
    <desc>Created with sketchtool.</desc>
    <defs>
        <linearGradient x1="98.8532841%" y1="69.8896882%" x2="-7.39896374%" y2="-5.68711582%" id="linearGradient-1">
            <stop stop-color="#8836FF" offset="0%"></stop>
            <stop stop-color="#4351F8" offset="100%"></stop>
        </linearGradient>
    </defs>
    <g id="Magestore-POS" stroke="none" stroke-width="1" fill="none" fill-rule="evenodd" transform="translate(-369.000000, -4810.000000)">
        <path d="M417.1973,4859.7886 L415.1013,4859.2946 C414.7013,4859.1986 414.2803,4859.3666 414.0513,4859.7126 C413.6043,4860.3956 413.0533,4860.9936 412.4143,4861.4876 C412.0883,4861.7406 411.9533,4862.1736 412.0783,4862.5656 L412.7333,4864.6156 L411.5643,4865.1556 L410.4373,4863.3266 C410.2203,4862.9736 409.8023,4862.7936 409.3983,4862.8806 C408.6083,4863.0446 407.7973,4863.0766 406.9933,4862.9746 C406.5823,4862.9206 406.1793,4863.1316 405.9903,4863.4986 L405.0023,4865.4186 L403.7983,4864.9756 L404.2973,4862.8786 C404.3933,4862.4756 404.2243,4862.0536 403.8783,4861.8276 C403.1973,4861.3806 402.6013,4860.8316 402.1113,4860.1976 C401.8603,4859.8706 401.4273,4859.7326 401.0303,4859.8586 L398.9813,4860.5186 L398.4463,4859.3526 L400.2793,4858.2196 C400.6273,4858.0046 400.8073,4857.5896 400.7253,4857.1826 C400.5623,4856.3926 400.5333,4855.5826 400.6373,4854.7746 C400.6913,4854.3636 400.4803,4853.9596 400.1133,4853.7716 L398.1983,4852.7876 L398.6463,4851.5796 L400.7453,4852.0746 C401.1433,4852.1676 401.5663,4851.9986 401.7913,4851.6556 C402.2393,4850.9716 402.7913,4850.3746 403.4283,4849.8806 C403.7553,4849.6276 403.8903,4849.1946 403.7653,4848.8036 L403.1103,4846.7526 L404.2793,4846.2126 L405.4053,4848.0416 C405.6223,4848.3936 406.0403,4848.5716 406.4453,4848.4876 C407.2333,4848.3246 408.0443,4848.2916 408.8543,4848.3946 C409.2653,4848.4466 409.6653,4848.2346 409.8523,4847.8696 L410.8413,4845.9496 L412.0453,4846.3926 L411.5463,4848.4916 C411.4503,4848.8926 411.6193,4849.3156 411.9653,4849.5406 C412.6463,4849.9876 413.2413,4850.5366 413.7323,4851.1706 C413.9853,4851.5006 414.4213,4851.6366 414.8133,4851.5096 L416.8613,4850.8496 L417.3973,4852.0156 L415.5643,4853.1486 C415.2133,4853.3646 415.0343,4853.7816 415.1183,4854.1856 C415.2803,4854.9756 415.3103,4855.7866 415.2053,4856.5986 C415.1543,4857.0076 415.3653,4857.4096 415.7313,4857.5966 L417.6443,4858.5806 L417.1973,4859.7886 Z M418.8323,4857.4136 L416.8173,4856.3786 C416.8753,4855.6746 416.8493,4854.9726 416.7403,4854.2796 L418.6733,4853.0856 C419.0963,4852.8236 419.2593,4852.2846 419.0513,4851.8306 L418.0793,4849.7156 C417.8713,4849.2606 417.3543,4849.0346 416.8763,4849.1846 L414.7183,4849.8796 C414.2643,4849.3476 413.7493,4848.8716 413.1783,4848.4586 L413.7033,4846.2496 C413.8203,4845.7636 413.5533,4845.2656 413.0823,4845.0906 L410.8963,4844.2856 C410.4293,4844.1156 409.9043,4844.3186 409.6753,4844.7616 L408.6343,4846.7836 C407.9303,4846.7256 407.2283,4846.7546 406.5363,4846.8646 L405.3503,4844.9386 C405.0873,4844.5116 404.5463,4844.3486 404.0923,4844.5596 L401.9733,4845.5366 C401.5203,4845.7466 401.2943,4846.2626 401.4453,4846.7376 L402.1353,4848.8956 C401.6023,4849.3506 401.1243,4849.8696 400.7083,4850.4426 L398.4993,4849.9216 C398.0173,4849.8076 397.5183,4850.0746 397.3443,4850.5416 L396.5353,4852.7296 C396.3603,4853.1996 396.5663,4853.7266 397.0103,4853.9546 L399.0263,4854.9896 C398.9683,4855.6946 398.9943,4856.3976 399.1023,4857.0886 L397.1703,4858.2826 C396.7473,4858.5446 396.5843,4859.0846 396.7913,4859.5386 L397.7643,4861.6546 C397.9743,4862.1106 398.4913,4862.3376 398.9673,4862.1836 L401.1253,4861.4886 C401.5783,4862.0206 402.0943,4862.4966 402.6653,4862.9096 L402.1393,4865.1196 C402.0233,4865.6076 402.2913,4866.1056 402.7603,4866.2776 L404.9433,4867.0816 C405.0563,4867.1236 405.1723,4867.1436 405.2863,4867.1436 C405.6483,4867.1436 405.9933,4866.9446 406.1683,4866.6066 L407.2093,4864.5846 C407.9113,4864.6416 408.6133,4864.6136 409.3063,4864.5036 L410.4943,4866.4316 C410.7573,4866.8566 411.2973,4867.0186 411.7513,4866.8096 C411.7513,4866.8096 411.7513,4866.8096 411.7523,4866.8096 L413.8703,4865.8316 C414.3233,4865.6216 414.5503,4865.1056 414.3983,4864.6316 L413.7083,4862.4726 C414.2423,4862.0166 414.7203,4861.4976 415.1343,4860.9256 L417.3443,4861.4466 C417.8283,4861.5606 418.3243,4861.2946 418.4983,4860.8266 L419.3083,4858.6386 C419.4833,4858.1686 419.2773,4857.6416 418.8323,4857.4136 Z M396.96,4863.42 C382.921,4863.42 371.5,4851.999 371.5,4837.96 C371.5,4823.921 382.921,4812.5 396.96,4812.5 C408.168,4812.5 418.21,4819.999 421.381,4830.736 C421.576,4831.399 422.271,4831.779 422.934,4831.581 C423.596,4831.386 423.974,4830.691 423.778,4830.028 C420.296,4818.236 409.268,4810 396.96,4810 C381.543,4810 369,4822.543 369,4837.96 C369,4853.377 381.543,4865.92 396.96,4865.92 C397.65,4865.92 398.21,4865.36 398.21,4864.67 C398.21,4863.98 397.65,4863.42 396.96,4863.42 M386.9624,4847.8726 C387.2064,4848.1166 387.5264,4848.2386 387.8464,4848.2386 C388.1664,4848.2386 388.4854,4848.1166 388.7304,4847.8726 L396.1704,4840.4326 C396.4034,4840.4966 396.6444,4840.5406 396.8984,4840.5406 C398.4404,4840.5406 399.6904,4839.2906 399.6904,4837.7496 C399.6904,4836.6596 399.0594,4835.7256 398.1484,4835.2656 L398.1484,4815.8326 C398.1484,4815.1426 397.5884,4814.5826 396.8984,4814.5826 C396.2084,4814.5826 395.6484,4815.1426 395.6484,4815.8326 L395.6484,4835.2656 C394.7374,4835.7256 394.1074,4836.6596 394.1074,4837.7496 C394.1074,4838.1076 394.1804,4838.4486 394.3034,4838.7636 L386.9624,4846.1046 C386.4744,4846.5936 386.4744,4847.3846 386.9624,4847.8726 M421.1533,4843.628 C420.1753,4843.628 419.3803,4842.833 419.3803,4841.855 C419.3803,4840.878 420.1753,4840.082 421.1533,4840.082 C422.1303,4840.082 422.9253,4840.878 422.9253,4841.855 C422.9253,4842.833 422.1313,4843.628 421.1533,4843.628 M421.1533,4838.845 C419.4933,4838.845 418.1433,4840.195 418.1433,4841.855 C418.1433,4843.515 419.4933,4844.865 421.1533,4844.865 C422.8133,4844.865 424.1633,4843.515 424.1633,4841.855 C424.1633,4840.195 422.8123,4838.845 421.1533,4838.845 M429.0957,4842.3589 L427.4507,4842.5599 C427.1157,4842.5999 426.8377,4842.8489 426.7577,4843.1809 C426.6167,4843.7779 426.3797,4844.3489 426.0517,4844.8799 C425.8737,4845.1679 425.8937,4845.5399 426.1017,4845.8069 L427.1257,4847.1149 L426.4127,4847.8279 L425.1067,4846.8059 C424.8397,4846.5949 424.4657,4846.5749 424.1767,4846.7539 C423.6477,4847.0809 423.0767,4847.3179 422.4827,4847.4599 C422.1517,4847.5359 421.9007,4847.8139 421.8577,4848.1519 L421.6577,4849.7969 L420.6497,4849.7979 L420.4487,4848.1499 C420.4067,4847.8139 420.1557,4847.5359 419.8267,4847.4599 C419.2297,4847.3189 418.6587,4847.0819 418.1317,4846.7549 C417.9997,4846.6729 417.8507,4846.6319 417.7017,4846.6319 C417.5237,4846.6319 417.3467,4846.6909 417.2007,4846.8039 L415.8937,4847.8279 L415.1807,4847.1149 L416.2037,4845.8069 C416.4137,4845.5399 416.4327,4845.1659 416.2537,4844.8779 C415.9267,4844.3489 415.6887,4843.7779 415.5487,4843.1839 C415.4717,4842.8529 415.1947,4842.6019 414.8567,4842.5599 L413.2107,4842.3589 L413.2107,4841.3509 L414.8587,4841.1499 C415.1947,4841.1079 415.4717,4840.8569 415.5487,4840.5279 C415.6887,4839.9329 415.9267,4839.3619 416.2547,4838.8309 C416.4327,4838.5409 416.4117,4838.1679 416.2037,4837.9029 L415.1807,4836.5949 L415.8937,4835.8819 L417.2007,4836.9059 C417.4687,4837.1139 417.8407,4837.1349 418.1307,4836.9559 C418.6587,4836.6289 419.2297,4836.3909 419.8247,4836.2509 C420.1577,4836.1729 420.4077,4835.8949 420.4487,4835.5579 L420.6487,4833.9129 L421.6577,4833.9129 L421.8577,4835.5579 C421.8987,4835.8929 422.1477,4836.1709 422.4797,4836.2499 C423.0767,4836.3909 423.6477,4836.6289 424.1777,4836.9569 C424.4667,4837.1349 424.8407,4837.1139 425.1047,4836.9059 L426.4127,4835.8819 L427.1257,4836.5949 L426.1017,4837.9029 C425.8937,4838.1689 425.8737,4838.5419 426.0527,4838.8329 C426.3797,4839.3599 426.6167,4839.9309 426.7587,4840.5299 C426.8377,4840.8599 427.1157,4841.1089 427.4497,4841.1499 L429.0957,4841.3509 L429.0957,4842.3589 Z M429.6137,4840.1669 L427.8877,4839.9569 C427.7387,4839.4279 427.5267,4838.9179 427.2557,4838.4369 L428.3277,4837.0669 C428.5847,4836.7399 428.5557,4836.2739 428.2627,4835.9829 L427.0267,4834.7469 C426.7337,4834.4509 426.2667,4834.4229 425.9417,4834.6789 L424.5707,4835.7529 C424.0887,4835.4809 423.5787,4835.2689 423.0517,4835.1199 L422.8407,4833.3949 C422.7907,4832.9849 422.4417,4832.6749 422.0287,4832.6749 L420.2787,4832.6749 C419.8647,4832.6749 419.5147,4832.9849 419.4657,4833.3949 L419.2547,4835.1199 C418.7267,4835.2689 418.2177,4835.4809 417.7357,4835.7529 L416.3657,4834.6799 C416.0397,4834.4239 415.5737,4834.4519 415.2807,4834.7449 L414.0417,4835.9839 C413.7517,4836.2759 413.7237,4836.7409 413.9777,4837.0659 L415.0507,4838.4369 C414.7797,4838.9199 414.5677,4839.4289 414.4187,4839.9569 L412.6937,4840.1679 C412.2837,4840.2169 411.9737,4840.5669 411.9737,4840.9799 L411.9737,4842.7299 C411.9737,4843.1439 412.2837,4843.4929 412.6937,4843.5429 L414.4187,4843.7529 C414.5677,4844.2809 414.7787,4844.7899 415.0507,4845.2729 L413.9767,4846.6449 C413.7227,4846.9709 413.7517,4847.4359 414.0437,4847.7279 L415.2807,4848.9649 C415.5727,4849.2569 416.0387,4849.2859 416.3647,4849.0309 L417.7357,4847.9579 C418.2177,4848.2289 418.7267,4848.4409 419.2557,4848.5899 L419.4657,4850.3159 C419.5157,4850.7259 419.8657,4851.0349 420.2787,4851.0349 L422.0287,4851.0349 C422.4417,4851.0349 422.7907,4850.7249 422.8407,4850.3149 L423.0517,4848.5899 C423.5787,4848.4409 424.0877,4848.2289 424.5707,4847.9579 L425.9427,4849.0319 C426.2677,4849.2849 426.7327,4849.2569 427.0257,4848.9649 L428.2627,4847.7279 C428.5557,4847.4349 428.5837,4846.9689 428.3287,4846.6439 L427.2557,4845.2729 C427.5277,4844.7899 427.7387,4844.2809 427.8877,4843.7529 L429.6137,4843.5429 C430.0237,4843.4919 430.3327,4843.1429 430.3327,4842.7299 L430.3327,4840.9799 C430.3327,4840.5669 430.0237,4840.2169 429.6137,4840.1669 Z M407.9429,4857.9585 C406.6939,4857.9585 405.6779,4856.9425 405.6779,4855.6935 C405.6779,4854.4455 406.6939,4853.4295 407.9429,4853.4295 C409.1909,4853.4295 410.2069,4854.4455 410.2069,4855.6945 C410.2069,4856.9425 409.1919,4857.9585 407.9429,4857.9585 M407.9429,4851.8495 C405.8229,4851.8495 404.0979,4853.5745 404.0979,4855.6935 C404.0979,4857.8135 405.8229,4859.5385 407.9429,4859.5385 C410.0629,4859.5385 411.7869,4857.8135 411.7869,4855.6945 C411.7869,4853.5745 410.0629,4851.8495 407.9429,4851.8495" id="Fill-11" fill="url(#linearGradient-1)"></path>
    </g>
</svg>