<?xml version="1.0" encoding="UTF-8"?>
<svg width="58px" height="58px" viewBox="0 0 58 58" version="1.1" xmlns="http://www.w3.org/2000/svg" xmlns:xlink="http://www.w3.org/1999/xlink">
    <!-- Generator: sketchtool 48.2 (47327) - http://www.bohemiancoding.com/sketch -->
    <title>65594E40-7B45-4A72-AB0F-47356F15B220</title>
    <desc>Created with sketchtool.</desc>
    <defs>
        <linearGradient x1="98.8532841%" y1="69.8896882%" x2="-7.39896374%" y2="-5.68711582%" id="linearGradient-1">
            <stop stop-color="#8836FF" offset="0%"></stop>
            <stop stop-color="#4351F8" offset="100%"></stop>
        </linearGradient>
    </defs>
    <g id="Magestore-POS" stroke="none" stroke-width="1" fill="none" fill-rule="evenodd" transform="translate(-663.000000, -4805.000000)">
        <path d="M714.4375,4844.0845 L714.4375,4828.9785 C716.9425,4830.6395 718.4995,4833.4285 718.4995,4836.5315 C718.4995,4839.6335 716.9425,4842.4225 714.4375,4844.0845 Z M711.9375,4846.0005 C711.9375,4846.5855 711.4605,4847.0625 710.8745,4847.0625 C710.2895,4847.0625 709.8125,4846.5855 709.8125,4846.0005 L709.8125,4827.6255 C709.8125,4827.0395 710.2895,4826.5625 710.8745,4826.5625 C711.4605,4826.5625 711.9375,4827.0395 711.9375,4827.6255 L711.9375,4846.0005 Z M694.3125,4860.5005 L688.0005,4860.5005 C687.2075,4860.5005 686.5625,4859.8555 686.5625,4859.0625 C686.5625,4858.2705 687.2075,4857.6255 688.0005,4857.6255 L694.3125,4857.6255 C695.1045,4857.6255 695.7505,4858.2705 695.7505,4859.0625 C695.7505,4859.8555 695.1045,4860.5005 694.3125,4860.5005 Z M674.1875,4846.0005 C674.1875,4846.5855 673.7105,4847.0625 673.1245,4847.0625 C672.5395,4847.0625 672.0625,4846.5855 672.0625,4846.0005 L672.0625,4827.6255 C672.0625,4827.0395 672.5395,4826.5625 673.1245,4826.5625 C673.7105,4826.5625 674.1875,4827.0395 674.1875,4827.6255 L674.1875,4846.0005 Z M665.4995,4836.5315 C665.4995,4833.4265 667.0565,4830.6395 669.5625,4828.9785 L669.5625,4844.0855 C667.0585,4842.4215 665.4995,4839.6235 665.4995,4836.5315 Z M720.9995,4836.5315 C720.9995,4831.8505 718.2435,4827.7025 713.9585,4825.8745 C713.5555,4825.1675 712.9285,4824.6115 712.1635,4824.3125 C711.6895,4813.5865 702.8405,4805.0005 692.0005,4805.0005 C681.1595,4805.0005 672.3115,4813.5865 671.8375,4824.3125 C671.0715,4824.6115 670.4445,4825.1675 670.0415,4825.8745 C665.7555,4827.7035 662.9995,4831.8475 662.9995,4836.5315 C662.9995,4841.0855 665.6325,4845.1605 669.7395,4847.0535 C670.1925,4848.5015 671.5295,4849.5625 673.1245,4849.5625 C675.0895,4849.5625 676.6875,4847.9645 676.6875,4846.0005 L676.6875,4827.6255 C676.6875,4826.0885 675.7045,4824.7885 674.3385,4824.2895 C674.8215,4814.9535 682.5455,4807.5005 692.0005,4807.5005 C701.4545,4807.5005 709.1795,4814.9525 709.6615,4824.2895 C708.2955,4824.7885 707.3125,4826.0885 707.3125,4827.6255 L707.3125,4846.0005 C707.3125,4847.5285 708.2845,4848.8235 709.6395,4849.3285 C709.1595,4854.1205 705.1045,4857.8755 700.1875,4857.8755 L698.0465,4857.8755 C697.5395,4856.2865 696.0665,4855.1255 694.3125,4855.1255 L688.0005,4855.1255 C685.8295,4855.1255 684.0625,4856.8915 684.0625,4859.0625 C684.0625,4861.2335 685.8295,4863.0005 688.0005,4863.0005 L694.3125,4863.0005 C696.0205,4863.0005 697.4645,4861.8995 698.0085,4860.3755 L700.1875,4860.3755 C706.4855,4860.3755 711.6545,4855.4955 712.1395,4849.3195 C713.1525,4848.9325 713.9335,4848.0975 714.2595,4847.0565 C718.3715,4845.1635 720.9995,4841.1015 720.9995,4836.5315 Z" id="Fill-1" fill="url(#linearGradient-1)"></path>
    </g>
</svg>