<svg xmlns="http://www.w3.org/2000/svg" xmlns:xlink="http://www.w3.org/1999/xlink" width="100" height="111" viewBox="0 0 100 111">
    <defs>
        <path id="a" d="M57.296 2.236l34.797 20.09a15 15 0 0 1 7.5 12.99v40.18a15 15 0 0 1-7.5 12.99l-34.797 20.09a15 15 0 0 1-15 0L7.5 88.486A15 15 0 0 1 0 75.496v-40.18a15 15 0 0 1 7.5-12.99l34.796-20.09a15 15 0 0 1 15 0z"/>
    </defs>
    <g fill="none" fill-rule="evenodd">
        <mask id="b" fill="#fff">
            <use xlink:href="#a"/>
        </mask>
        <use fill="#A92FB8" xlink:href="#a"/>
        <g fill="#FFF" mask="url(#b)">
            <path fill-opacity=".3" d="M36.448 114.736c-2.194.409-4.357-1.033-4.767-3.237L14.45 19.415c-.407-2.163 1.047-4.317 3.257-4.727l40.233-7.493 3.74 19.99a8.149 8.149 0 0 0 9.537 6.53l16.098-2.999 12.735 68.067c.41 2.195-1.056 4.31-3.279 4.72l-60.324 11.233zM85.36 26.94l-14.894 2.774c-2.194.408-4.347-1.062-4.764-3.29L62.338 8.449 85.36 26.94zm4.12 82.065l8.054-1.497c4.437-.83 7.361-5.09 6.54-9.466L90.587 25.967 61.214 2.446 16.988 10.68c-4.449.826-7.382 5.092-6.55 9.532l17.214 91.991a8.166 8.166 0 0 0 9.537 6.535l32.18-5.991 20.11-3.742z"/>
            <path fill-opacity=".9" d="M50.097 20.487l-24.14 4.55a2.096 2.096 0 0 0-1.674 2.44 2.081 2.081 0 0 0 2.432 1.667l24.14-4.55a2.096 2.096 0 0 0 1.674-2.44 2.081 2.081 0 0 0-2.432-1.667z"/>
            <path fill-opacity=".5" d="M52.226 33.35l-24.14 4.55a2.096 2.096 0 0 0-1.674 2.44 2.081 2.081 0 0 0 2.433 1.668l24.14-4.55a2.096 2.096 0 0 0 1.673-2.441 2.081 2.081 0 0 0-2.432-1.667zM33.541 75.95a2.001 2.001 0 0 0 2.33 1.597l48.046-8.874a1.986 1.986 0 0 0 1.591-2.32 2.001 2.001 0 0 0-2.33-1.598L35.132 73.63a1.986 1.986 0 0 0-1.59 2.321zM81.015 52.6l-48.28 8.986a2.034 2.034 0 0 0-1.626 2.375 2.04 2.04 0 0 0 2.38 1.63l48.274-8.99a2.034 2.034 0 0 0 1.627-2.374 2.037 2.037 0 0 0-2.375-1.628zM78.768 40.592L30.49 49.58a2.034 2.034 0 0 0-1.626 2.375 2.04 2.04 0 0 0 2.379 1.63l48.275-8.99a2.034 2.034 0 0 0 1.626-2.373 2.037 2.037 0 0 0-2.375-1.629z"/>
        </g>
    </g>
</svg>
