<svg xmlns="http://www.w3.org/2000/svg" width="45" height="45" viewBox="0 0 45 45">
    <defs>
        <path id="a" d="M45 32.77v12.116H0V0h45v32.77H0v12.116h45V32.77z"/>
    </defs>
    <g fill="none" fill-rule="evenodd">
        <path fill="#8047BB" d="M22.593 23.189a5.995 5.995 0 1 1-.001-11.99 5.995 5.995 0 0 1 .001 11.99zm17.194-3.879v-4.3l-5.114-.835a12.5 12.5 0 0 0-1.408-3.394l2.983-4.25-3.04-3.038-4.195 3.016a12.26 12.26 0 0 0-3.411-1.419L24.708 0H20.41l-.827 5.075c-1.222.299-2.373.775-3.422 1.405l-4.183-2.987-3.04 3.037 2.943 4.208a12.491 12.491 0 0 0-1.428 3.432l-5.052.84v4.298l5.047.894c.305 1.228.79 2.38 1.426 3.435l-2.982 4.17 3.04 3.04 4.212-2.949c1.052.632 2.2 1.111 3.422 1.41l.844 5.079h4.3l.901-5.09a12.456 12.456 0 0 0 3.405-1.426l4.242 2.978 3.037-3.04-3.027-4.205a12.425 12.425 0 0 0 1.404-3.399l5.116-.895z"/>
        <path fill="#8047BB" d="M41.538 32.4v6.923c0 .954-.775 1.73-1.73 1.73H5.192c-.955 0-1.73-.776-1.73-1.73V32.4H0v6.923a5.194 5.194 0 0 0 5.192 5.192h34.616A5.194 5.194 0 0 0 45 39.323V32.4h-3.462z"/>
    </g>
</svg>
