<?xml version="1.0" encoding="UTF-8"?>
<svg width="50px" height="64px" viewBox="0 0 50 64" version="1.1" xmlns="http://www.w3.org/2000/svg" xmlns:xlink="http://www.w3.org/1999/xlink">
    <!-- Generator: sketchtool 48.2 (47327) - http://www.bohemiancoding.com/sketch -->
    <title>EE4A5730-DBE3-4657-9A69-E10644F0DA27</title>
    <desc>Created with sketchtool.</desc>
    <defs>
        <linearGradient x1="100%" y1="49.9996036%" x2="0%" y2="50%" id="linearGradient-1">
            <stop stop-color="#A445B2" offset="0%"></stop>
            <stop stop-color="#D41872" offset="51.7099809%"></stop>
            <stop stop-color="#FF0066" offset="100%"></stop>
        </linearGradient>
        <path d="M549.610235,1104.34347 C549.156023,1103.93373 549.122577,1103.23873 549.535877,1102.78879 L554.003341,1097.92313 C558.104689,1093.45746 560.363506,1087.6736 560.363506,1081.63788 L560.363506,1077.11692 C560.363506,1076.50912 559.864799,1076.01602 559.251717,1076.01602 C558.638635,1076.01602 558.139927,1076.50912 558.139927,1077.11692 L558.139927,1081.19799 C558.139927,1086.64513 556.113144,1091.8747 552.431965,1095.92236 L547.84923,1100.96391 C547.439214,1101.41503 546.735648,1101.45139 546.279346,1101.0455 C545.823043,1100.63872 545.786013,1099.94253 546.196925,1099.49141 L550.779958,1094.44957 C554.092631,1090.80632 555.916945,1086.10089 555.916945,1081.19799 L555.916945,1077.11603 C555.916945,1075.29588 557.413068,1073.81481 559.251717,1073.81481 C561.090664,1073.81481 562.587085,1075.29588 562.587085,1077.11603 L562.587085,1081.63788 C562.587085,1088.22228 560.122514,1094.53205 555.647584,1099.40361 L551.180119,1104.26927 C550.961225,1104.50783 550.65991,1104.62963 550.357401,1104.62963 C550.091025,1104.62963 549.823156,1104.53473 549.610235,1104.34347 Z M554.291599,1106.70996 C553.823238,1106.29467 553.789058,1105.59023 554.215232,1105.13359 L558.101917,1100.9738 C563.099919,1095.62297 565.852808,1088.69488 565.852808,1081.46506 L565.852808,1076.88278 C565.852808,1073.80766 563.281598,1071.30513 560.12101,1071.30513 C556.960731,1071.30513 554.389212,1073.80766 554.389212,1076.88278 L554.389212,1081.0195 C554.389212,1085.43608 552.717464,1089.67557 549.680664,1092.95864 L546.321462,1096.59138 C545.898983,1097.05042 545.173193,1097.08607 544.702369,1096.67438 C544.232161,1096.26239 544.193978,1095.55675 544.617688,1095.09921 L547.97689,1091.46648 C550.633705,1088.5936 552.096678,1084.88326 552.096678,1081.0195 L552.096678,1076.88278 C552.096678,1072.57737 555.696373,1069.07407 560.12101,1069.07407 C564.545956,1069.07407 568.145651,1072.57737 568.145651,1076.88278 L568.145651,1081.46506 C568.145651,1089.2504 565.180599,1096.71213 559.798916,1102.47466 L555.911307,1106.63445 C555.684979,1106.87655 555.374279,1107 555.062654,1107 C554.787365,1107 554.511768,1106.90382 554.291599,1106.70996 Z M559.596047,1106.71428 C559.147128,1106.3051 559.113481,1105.60754 559.521375,1105.15632 L560.552031,1104.01878 C566.080444,1097.91896 569.124304,1090.01927 569.124304,1081.77613 L569.124304,1077.24819 C569.124304,1071.77724 564.688527,1067.32777 559.235672,1067.32777 C553.783702,1067.32777 549.346745,1071.77724 549.346745,1077.24819 L549.346745,1081.33557 C549.346745,1084.60842 548.145199,1087.75012 545.962286,1090.18419 L543.062459,1093.41648 C542.656631,1093.86948 541.961262,1093.90472 541.511162,1093.4982 C541.059291,1093.09139 541.022988,1092.39353 541.429406,1091.94171 L544.329233,1088.70912 C546.147639,1086.68127 547.149075,1084.06334 547.149075,1081.33557 L547.149075,1077.24819 C547.149075,1070.56243 552.57153,1065.12346 559.235672,1065.12346 C565.899814,1065.12346 571.321974,1070.56243 571.321974,1077.24819 L571.321974,1081.77613 C571.321974,1090.56879 568.074463,1098.9952 562.178,1105.50214 L561.147935,1106.63967 C560.930706,1106.8789 560.632902,1107 560.333917,1107 C560.070645,1107 559.805898,1106.90555 559.596047,1106.71428 Z M572.078847,1097.43468 C571.464247,1097.19458 571.162897,1096.50669 571.406357,1095.90042 C572.009057,1094.40109 572.523957,1092.84905 572.937228,1091.2897 C573.10318,1090.6577 573.757659,1090.28517 574.397988,1090.44396 C575.03703,1090.60943 575.421034,1091.2554 575.252832,1091.88739 C574.816083,1093.5398 574.27063,1095.18267 573.632874,1096.77092 C573.446339,1097.23523 572.996405,1097.51852 572.519133,1097.51852 C572.3728,1097.51852 572.222929,1097.49184 572.078847,1097.43468 Z M539.149668,1090.1235 C538.672223,1089.71517 538.633477,1089.01551 539.063428,1088.56263 L541.793738,1085.67845 C542.94923,1084.4588 543.584782,1082.88337 543.584782,1081.24142 C543.584782,1080.62996 544.105972,1080.1358 544.748085,1080.1358 C545.390824,1080.1358 545.911389,1080.62996 545.911389,1081.24142 C545.911389,1083.4295 545.063049,1085.53175 543.522289,1087.15796 L540.792603,1090.04184 C540.56263,1090.28446 540.246104,1090.40741 539.927703,1090.40741 C539.650235,1090.40741 539.37183,1090.31386 539.149668,1090.1235 Z M575.131586,1087.23623 C574.477493,1087.15538 574.021007,1086.61397 574.111149,1086.02521 C574.363933,1084.37155 574.492249,1082.68525 574.492249,1081.01454 L574.492249,1076.59869 C574.492249,1072.64571 572.612413,1068.85818 569.335211,1066.20689 C568.845363,1065.80985 568.804943,1065.12956 569.245389,1064.68777 C569.686798,1064.24916 570.441619,1064.2122 570.932109,1064.60721 C574.712954,1067.66594 576.880539,1072.03674 576.880539,1076.59869 L576.880539,1081.01454 C576.880539,1082.78458 576.745486,1084.56905 576.477947,1086.31858 C576.395503,1086.85739 575.883521,1087.24691 575.296152,1087.24691 C575.241297,1087.24691 575.186441,1087.24374 575.131586,1087.23623 Z M542.735066,1076.66919 C542.735066,1068.54498 549.005227,1061.54792 557.320648,1060.39338 C557.938614,1060.31005 558.515139,1060.72405 558.60503,1061.32237 C558.694008,1061.92188 558.263747,1062.47751 557.643039,1062.56437 C550.438006,1063.56403 545.004293,1069.62826 545.004293,1076.66919 C545.004293,1077.27488 544.496025,1077.76543 543.869527,1077.76543 C543.242724,1077.76543 542.735066,1077.27488 542.735066,1076.66919 Z M565.647672,1064.21461 C564.246887,1063.52539 562.759353,1063.06007 561.227644,1062.83419 C560.576228,1062.73663 560.123598,1062.11422 560.217069,1061.44055 C560.31054,1060.76556 560.908499,1060.29726 561.565997,1060.39581 C563.336185,1060.65741 565.053875,1061.19417 566.672012,1061.9902 C567.26677,1062.28322 567.518373,1063.01741 567.235399,1063.63155 C567.032132,1064.07471 566.60479,1064.33333 566.159202,1064.33333 C565.987945,1064.33333 565.813167,1064.29497 565.647672,1064.21461 Z M536.769464,1086.17094 C536.289372,1085.76127 536.250751,1085.05829 536.682488,1084.60237 L538.033278,1083.17641 C538.420743,1082.76734 538.633315,1082.2398 538.633315,1081.68989 L538.633315,1077.56988 C538.633315,1072.17489 540.782584,1067.03651 544.686435,1063.10269 C545.129477,1062.65572 545.868298,1062.63423 546.338342,1063.05614 C546.808387,1063.47715 546.829738,1064.18013 546.387011,1064.62561 C542.895116,1068.14678 540.971607,1072.7442 540.971607,1077.56988 L540.971607,1081.68989 C540.971607,1082.79001 540.544579,1083.84538 539.770591,1084.66204 L538.420115,1086.08889 C538.189018,1086.33266 537.871259,1086.45679 537.550988,1086.45679 C537.272164,1086.45679 536.992398,1086.3622 536.769464,1086.17094 Z M579.376072,1081.42456 L579.376072,1076.9816 C579.376072,1066.84267 570.726511,1058.59475 560.094092,1058.59475 C559.732741,1058.59475 559.373219,1058.6055 559.016134,1058.62351 C558.398243,1058.66186 557.856826,1058.19702 557.824225,1057.6 C557.791015,1057.00356 558.270886,1056.49456 558.897004,1056.4626 C559.293392,1056.44285 559.692828,1056.4321 560.094092,1056.4321 C571.977527,1056.4321 581.645024,1065.65008 581.645024,1076.9816 L581.645024,1081.42456 C581.645024,1082.02216 581.137427,1082.50617 580.5107,1082.50617 C579.884278,1082.50617 579.376072,1082.02216 579.376072,1081.42456 Z M547.692404,1060.72491 C547.353305,1060.25202 547.4728,1059.60074 547.961194,1059.2709 C549.831443,1058.0107 551.886865,1057.06856 554.070751,1056.47086 C554.644788,1056.31603 555.239368,1056.63887 555.399658,1057.19282 C555.561106,1057.74789 555.227794,1058.32484 554.655493,1058.48191 C552.703363,1059.0151 550.863783,1059.8571 549.191438,1060.98604 C549.00395,1061.11282 548.789265,1061.17284 548.577473,1061.17284 C548.236639,1061.17284 547.901591,1061.01661 547.692404,1060.72491 Z M534.001124,1076.44474 C534.610542,1062.70849 545.725913,1051.94949 559.305582,1051.94949 C560.520573,1051.94949 561.74355,1052.0379 562.941382,1052.21233 C563.543109,1052.30074 563.961122,1052.86598 563.874443,1053.47647 C563.787468,1054.08667 563.22627,1054.50805 562.627502,1054.42173 C561.533508,1054.26139 560.415551,1054.18107 559.305582,1054.18107 C546.906587,1054.18107 536.758001,1064.0047 536.201537,1076.54544 C536.175504,1077.14334 535.687673,1077.61148 535.102514,1077.61148 C534.443987,1077.5827 533.973907,1077.06062 534.001124,1076.44474 Z M581.697148,1069.66794 C580.583846,1066.63731 578.814317,1063.89779 576.437792,1061.52767 C575.995965,1061.08578 576.028046,1060.40141 576.508306,1059.9962 C576.990154,1059.58983 577.737226,1059.62039 578.17937,1060.06082 C580.781096,1062.65655 582.718971,1065.65602 583.937726,1068.97541 C584.14641,1069.54305 583.813532,1070.15814 583.194466,1070.3494 C583.069002,1070.38695 582.942266,1070.405 582.817119,1070.405 C582.322566,1070.405 581.862952,1070.12001 581.697148,1069.66794 Z M573.552803,1058.59 C571.643645,1057.19192 569.538046,1056.10206 567.293887,1055.34797 C566.725319,1055.15729 566.421889,1054.55 566.616283,1053.99203 C566.811262,1053.43434 567.428647,1053.14045 567.998091,1053.32825 C570.457108,1054.15346 572.764409,1055.34797 574.854807,1056.88082 C575.336554,1057.23263 575.435944,1057.90214 575.075803,1058.3741 C574.862115,1058.65509 574.534129,1058.80247 574.202343,1058.80247 C573.976086,1058.80247 573.747782,1058.73423 573.552803,1058.59 Z M536.025071,1060.14778 C535.530144,1059.77302 535.44266,1059.07947 535.830526,1058.59983 C539.106589,1054.5476 543.420531,1051.36785 548.305872,1049.40543 C548.889813,1049.17169 549.554508,1049.4401 549.794936,1050.0021 C550.035364,1050.5644 549.759453,1051.20995 549.179489,1051.4437 C544.655096,1053.26035 540.658972,1056.20606 537.624561,1059.95907 C537.399427,1060.23755 537.064479,1060.38272 536.726779,1060.38272 C536.480233,1060.38272 536.233687,1060.30628 536.025071,1060.14778 Z M578.958992,1058.46195 C573.723318,1052.97596 566.690076,1049.95321 559.154754,1049.95321 C557.015678,1049.95321 554.885457,1050.2031 552.822534,1050.69426 C552.230724,1050.8351 551.639209,1050.46844 551.499891,1049.87298 C551.359686,1049.27901 551.725398,1048.68295 552.315732,1048.54241 C554.544539,1048.01143 556.845662,1047.74074 559.154754,1047.74074 C567.294283,1047.74074 574.890999,1051.00447 580.544334,1056.93022 C580.965243,1057.37147 580.950779,1058.07122 580.513342,1058.49464 C580.299641,1058.70025 580.025726,1058.80247 579.751811,1058.80247 C579.462842,1058.80247 579.175054,1058.68926 578.958992,1058.46195 Z M574.433311,1049.18416 C573.393364,1048.60966 572.318934,1048.09047 571.237849,1047.64016 C570.660403,1047.4 570.378184,1046.71679 570.607771,1046.11228 C570.837963,1045.50902 571.493752,1045.2123 572.07029,1045.4553 C573.226392,1045.93531 574.375536,1046.49022 575.486869,1047.10453 C576.036486,1047.40916 576.246412,1048.12049 575.95542,1048.69498 C575.75215,1049.09378 575.36164,1049.32099 574.958729,1049.32099 C574.780565,1049.32099 574.600585,1049.27738 574.433311,1049.18416 Z M544.43488,1047.90123 C544.166118,1047.3473 544.399146,1046.68176 544.955888,1046.41362 C549.66478,1044.14825 554.717506,1043 559.974432,1043 C562.713702,1043 565.441862,1043.3208 568.083238,1043.95373 C568.683523,1044.09827 569.052883,1044.69978 568.908442,1045.29889 C568.763401,1045.89711 568.160413,1046.2628 567.560128,1046.12095 C565.089919,1045.52812 562.538031,1045.22797 559.974432,1045.22797 C555.057137,1045.22797 550.331129,1046.3017 545.927035,1048.42014 C545.770883,1048.49525 545.604821,1048.53086 545.441762,1048.53086 C545.026157,1048.53086 544.627368,1048.29954 544.43488,1047.90123 Z" id="path-2"></path>
    </defs>
    <g id="Magento-ERP" stroke="none" stroke-width="1" fill="none" fill-rule="evenodd" transform="translate(-534.000000, -1043.000000)">
        <mask id="mask-3" fill="white">
            <use xlink:href="#path-2"></use>
        </mask>
        <use id="Mask" fill="url(#linearGradient-1)" xlink:href="#path-2"></use>
    </g>
</svg>