<?xml version="1.0" encoding="UTF-8"?>
<svg width="75px" height="55px" viewBox="0 0 75 55" version="1.1" xmlns="http://www.w3.org/2000/svg" xmlns:xlink="http://www.w3.org/1999/xlink">
    <!-- Generator: sketchtool 48.2 (47327) - http://www.bohemiancoding.com/sketch -->
    <title>549C5D1D-E4B5-4A1A-B969-8A56AB47603D</title>
    <desc>Created with sketchtool.</desc>
    <defs>
        <linearGradient x1="100%" y1="49.9996036%" x2="0%" y2="50%" id="linearGradient-1">
            <stop stop-color="#A445B2" offset="0%"></stop>
            <stop stop-color="#D41872" offset="51.7099809%"></stop>
            <stop stop-color="#FF0066" offset="100%"></stop>
        </linearGradient>
    </defs>
    <g id="Magento-ERP" stroke="none" stroke-width="1" fill="none" fill-rule="evenodd" transform="translate(-1323.000000, -1051.000000)">
        <path d="M1374.95524,1063.52516 C1375.66131,1063.87384 1376.34918,1064.25415 1377,1064.6549 C1377.62926,1065.04247 1377.81857,1065.85649 1377.42242,1066.47277 C1377.16641,1066.87023 1376.72849,1067.0884 1376.28046,1067.0884 C1376.0359,1067.0884 1375.78729,1067.0238 1375.56429,1066.88605 C1374.98489,1066.52946 1374.37112,1066.19067 1373.73984,1065.87824 C1373.07555,1065.55 1372.80943,1064.75707 1373.14494,1064.10783 C1373.48046,1063.45661 1374.29095,1063.19559 1374.95524,1063.52516 Z M1357.74454,1058.7502 C1362.14232,1058.7502 1366.47659,1059.65539 1370.27808,1061.36714 C1370.99787,1061.69129 1371.33871,1062.58654 1371.0395,1063.36559 C1370.81439,1063.95426 1370.28866,1064.309 1369.73541,1064.309 C1369.55476,1064.309 1369.37199,1064.27077 1369.19486,1064.1905 C1365.73351,1062.63165 1361.77396,1061.80826 1357.74454,1061.80826 C1356.96548,1061.80826 1356.33319,1061.12326 1356.33319,1060.27923 C1356.33319,1059.43521 1356.96548,1058.7502 1357.74454,1058.7502 Z M1340.82187,1072.18397 C1340.82187,1073.07652 1340.09586,1073.80303 1339.20318,1073.80303 C1338.31126,1073.80303 1337.58525,1073.07652 1337.58525,1072.18397 C1337.58525,1071.29141 1338.31126,1070.5649 1339.20318,1070.5649 C1340.09586,1070.5649 1340.82187,1071.29141 1340.82187,1072.18397 M1335.96282,1072.18397 C1335.96282,1070.39285 1337.41333,1068.94133 1339.20318,1068.94133 C1340.99379,1068.94133 1342.4443,1070.39285 1342.4443,1072.18397 C1342.4443,1073.97508 1340.99379,1075.4266 1339.20318,1075.4266 C1337.41333,1075.4266 1335.96282,1073.97508 1335.96282,1072.18397 Z M1392.23942,1069.21229 C1395.41538,1069.21229 1398,1071.79894 1398,1074.97829 C1398,1078.15835 1395.41538,1080.74572 1392.23942,1080.74572 C1391.11154,1080.74572 1390.03053,1080.42158 1389.10601,1079.86425 C1387.97885,1086.1327 1383.16803,1091.93335 1375.94062,1095.56967 L1375.94062,1101.82585 C1375.94062,1104.12733 1374.07067,1106 1371.77163,1106 L1367.54567,1106 C1365.24663,1106 1363.37668,1104.12733 1363.37668,1101.82585 L1363.37668,1099.06738 C1362.13486,1099.19805 1360.5274,1099.33088 1359.10313,1099.33088 C1357.20649,1099.33088 1355.72163,1099.29046 1354.18197,1099.11214 L1354.18197,1101.82585 C1354.18197,1104.12733 1352.3113,1106 1350.01226,1106 L1345.7863,1106 C1343.48726,1106 1341.61731,1104.12733 1341.61731,1101.82585 L1341.61731,1095.26213 C1336.27356,1092.57947 1332.53365,1089.14456 1330.47909,1085.03538 L1327.16971,1085.03538 C1324.87067,1085.03538 1323,1083.16272 1323,1080.86195 L1323,1073.13161 C1323,1070.83012 1324.87067,1068.95745 1327.16971,1068.95745 L1330.87428,1068.95745 C1332.42837,1065.91888 1334.5875,1063.29181 1337.18077,1061.28631 L1337.18077,1052.44421 C1337.18077,1051.95041 1337.43317,1051.49055 1337.85,1051.2256 C1338.26611,1050.95994 1338.78966,1050.92673 1339.23678,1051.13753 L1348.95288,1055.7073 C1352.12163,1054.99981 1356.22356,1054.74425 1359.10313,1054.74425 C1365.81058,1054.74425 1372.16034,1056.31949 1377.46659,1059.3003 C1378.79279,1060.04533 1380.04183,1060.87554 1381.18053,1061.76855 C1381.80721,1062.26091 1381.91683,1063.16836 1381.425,1063.79643 C1380.93389,1064.42378 1380.0274,1064.53496 1379.40072,1064.04189 C1378.37812,1063.23911 1377.2524,1062.49048 1376.05457,1061.81837 C1371.17885,1059.07939 1365.31659,1057.63194 1359.10313,1057.63194 C1356.23726,1057.63194 1352.11514,1057.894 1349.13966,1058.62964 C1348.81947,1058.70905 1348.47981,1058.6744 1348.18053,1058.53507 L1340.06538,1054.71826 L1340.06538,1062.01112 C1340.06538,1062.47676 1339.84183,1062.91352 1339.46394,1063.18424 C1336.76466,1065.1226 1334.55865,1067.82837 1333.08317,1071.00916 C1332.84736,1071.51883 1332.33678,1071.84514 1331.775,1071.84514 L1327.16971,1071.84514 C1326.46082,1071.84514 1325.88462,1072.42196 1325.88462,1073.13161 L1325.88462,1080.86195 C1325.88462,1081.57088 1326.46082,1082.14769 1327.16971,1082.14769 L1331.39784,1082.14769 C1331.9726,1082.14769 1332.49255,1082.48988 1332.72115,1083.01761 C1334.47212,1087.06471 1338.15793,1090.44186 1343.6762,1093.05449 C1344.18029,1093.29273 1344.50192,1093.80168 1344.50192,1094.35973 L1344.50192,1101.82585 C1344.50192,1102.53477 1345.07812,1103.11231 1345.7863,1103.11231 L1350.01226,1103.11231 C1350.72043,1103.11231 1351.29736,1102.53477 1351.29736,1101.82585 L1351.29736,1097.44234 C1351.29736,1097.0164 1351.48558,1096.61068 1351.81226,1096.33635 C1352.13822,1096.06202 1352.57019,1095.94507 1352.98918,1096.02087 C1355.00481,1096.37606 1356.69231,1096.4432 1359.10313,1096.4432 C1361.14399,1096.4432 1363.64856,1096.14143 1364.63005,1096.01149 C1365.04327,1095.95662 1365.45721,1096.08368 1365.76947,1096.35729 C1366.08173,1096.63089 1366.2613,1097.02651 1366.2613,1097.44234 L1366.2613,1101.82585 C1366.2613,1102.53477 1366.8375,1103.11231 1367.54567,1103.11231 L1371.77163,1103.11231 C1372.47981,1103.11231 1373.05601,1102.53477 1373.05601,1101.82585 L1373.05601,1094.6651 C1373.05601,1094.10417 1373.38053,1093.59449 1373.8875,1093.35698 C1381.65433,1089.71921 1386.47885,1083.46665 1386.47885,1077.03793 C1386.47885,1074.49099 1385.78798,1072.01335 1384.42428,1069.6736 C1383.92236,1068.81163 1383.3274,1067.96842 1382.65457,1067.16781 C1382.14327,1066.55706 1382.22187,1065.64672 1382.83197,1065.13416 C1383.44135,1064.62087 1384.35144,1064.701 1384.86418,1065.31103 C1385.64159,1066.23725 1386.33173,1067.21473 1386.91587,1068.21821 C1388.32572,1070.63809 1389.13053,1073.19369 1389.31875,1075.83015 C1389.68293,1076.99028 1390.91538,1077.85803 1392.23942,1077.85803 C1393.82524,1077.85803 1395.11538,1076.56651 1395.11538,1074.97829 C1395.11538,1073.3915 1393.82524,1072.09998 1392.23942,1072.09998 C1391.44327,1072.09998 1390.79712,1071.45314 1390.79712,1070.65614 C1390.79712,1069.85914 1391.44327,1069.21229 1392.23942,1069.21229 Z" id="Rectangle-9" fill="url(#linearGradient-1)"></path>
    </g>
</svg>