<svg xmlns="http://www.w3.org/2000/svg" width="57" height="50" viewBox="0 0 57 50">
    <g fill="none" fill-rule="evenodd">
        <path fill="#FEFEFE" d="M52.738 47.201c0 .975-.79 1.766-1.766 1.766H6.287a1.766 1.766 0 0 1-1.766-1.766V2.516c0-.975.79-1.766 1.766-1.766h44.685c.975 0 1.766.791 1.766 1.766v44.685z"/>
        <path stroke="#2880C3" stroke-width="1.5" d="M52.738 47.201c0 .975-.79 1.766-1.766 1.766H6.287a1.766 1.766 0 0 1-1.766-1.766V2.516c0-.975.79-1.766 1.766-1.766h44.685c.975 0 1.766.791 1.766 1.766v44.685z"/>
        <path stroke="#2880C3" stroke-width="1.5" d="M52.738 47.201c0 .975-.79 1.766-1.766 1.766H6.287a1.766 1.766 0 0 1-1.766-1.766V2.516c0-.975.79-1.766 1.766-1.766h44.685c.975 0 1.766.791 1.766 1.766v44.685z"/>
        <path fill="#FEFEFE" d="M4.521 33.276V47.2c0 .976.791 1.766 1.766 1.766h44.685c.976 0 1.766-.79 1.766-1.766V13.67l-15.87 13.823-15.692-5.803L4.521 33.276z"/>
        <path stroke="#2880C3" stroke-width="1.5" d="M4.521 33.276V47.2c0 .976.791 1.766 1.766 1.766h44.685c.976 0 1.766-.79 1.766-1.766V13.67l-15.87 13.823-15.692-5.803L4.521 33.276z"/>
        <path stroke="#2880C3" stroke-width="1.5" d="M4.521 33.276V47.2c0 .976.791 1.766 1.766 1.766h44.685c.976 0 1.766-.79 1.766-1.766V13.67l-15.87 13.823-15.692-5.803L4.521 33.276zM13.043 4.45v22.785M21.176 4.45v21.277M28.895 4.45v20.408M36.868 4.45v23.742M45.001 4.45v16.336"/>
        <path stroke="#2880C3" stroke-linecap="round" stroke-linejoin="round" stroke-width="1.5" d="M21.176 24.547v3"/>
        <path stroke="#2880C3" stroke-dasharray="5.263,2.631" stroke-linecap="round" stroke-linejoin="round" stroke-width="1.5" d="M21.176 30.178v14.473"/>
        <path stroke="#2880C3" stroke-linecap="round" stroke-linejoin="round" stroke-width="1.5" d="M21.176 45.967v3h3M33.868 48.967h3v-3"/>
        <path stroke="#2880C3" stroke-dasharray="6.057,3.028" stroke-linecap="round" stroke-linejoin="round" stroke-width="1.5" d="M36.868 42.939v-7.571"/>
        <path stroke="#2880C3" stroke-linecap="round" stroke-linejoin="round" stroke-width="1.5" d="M36.868 33.854v-3"/>
        <path fill="#C3E2F6" d="M7.792 32.59a3.263 3.263 0 0 1-3.271 3.255A3.264 3.264 0 0 1 1.25 32.59a3.264 3.264 0 0 1 3.271-3.256 3.263 3.263 0 0 1 3.271 3.256"/>
        <path stroke="#2880C3" stroke-width="1.5" d="M7.792 32.59a3.263 3.263 0 0 1-3.271 3.255A3.264 3.264 0 0 1 1.25 32.59a3.264 3.264 0 0 1 3.271-3.256 3.263 3.263 0 0 1 3.271 3.256"/>
        <path stroke="#2880C3" stroke-width="1.5" d="M7.792 32.59a3.263 3.263 0 0 1-3.271 3.255A3.264 3.264 0 0 1 1.25 32.59a3.264 3.264 0 0 1 3.271-3.256 3.263 3.263 0 0 1 3.271 3.256z"/>
        <path fill="#C3E2F6" d="M24.447 21.29a3.263 3.263 0 0 1-3.27 3.256 3.264 3.264 0 0 1-3.272-3.256 3.264 3.264 0 0 1 3.271-3.256 3.263 3.263 0 0 1 3.271 3.256"/>
        <path stroke="#2880C3" stroke-width="1.5" d="M24.447 21.29a3.263 3.263 0 0 1-3.27 3.256 3.264 3.264 0 0 1-3.272-3.256 3.264 3.264 0 0 1 3.271-3.256 3.263 3.263 0 0 1 3.271 3.256"/>
        <path stroke="#2880C3" stroke-width="1.5" d="M24.447 21.29a3.263 3.263 0 0 1-3.27 3.257 3.264 3.264 0 0 1-3.272-3.256 3.264 3.264 0 0 1 3.271-3.256 3.263 3.263 0 0 1 3.271 3.256z"/>
        <path fill="#259ED9" d="M40.139 27.235a3.263 3.263 0 0 1-3.271 3.256 3.264 3.264 0 0 1-3.271-3.256 3.264 3.264 0 0 1 3.27-3.256 3.263 3.263 0 0 1 3.272 3.256"/>
        <path stroke="#2880C3" stroke-width="1.5" d="M40.139 27.235a3.263 3.263 0 0 1-3.271 3.256 3.264 3.264 0 0 1-3.271-3.256 3.264 3.264 0 0 1 3.27-3.256 3.263 3.263 0 0 1 3.272 3.256"/>
        <path fill="#C3E2F6" d="M40.139 27.235a3.263 3.263 0 0 1-3.271 3.256 3.264 3.264 0 0 1-3.271-3.256 3.264 3.264 0 0 1 3.27-3.256 3.263 3.263 0 0 1 3.272 3.256"/>
        <path stroke="#2880C3" stroke-width="1.5" d="M40.139 27.235a3.263 3.263 0 0 1-3.271 3.256 3.264 3.264 0 0 1-3.271-3.256 3.264 3.264 0 0 1 3.27-3.256 3.263 3.263 0 0 1 3.272 3.256z"/>
        <g>
            <path fill="#C3E2F6" d="M56.01 13.97a3.263 3.263 0 0 1-3.272 3.257 3.264 3.264 0 0 1-3.27-3.256 3.264 3.264 0 0 1 3.27-3.256 3.263 3.263 0 0 1 3.271 3.256"/>
            <path stroke="#2880C3" stroke-width="1.5" d="M56.01 13.97a3.263 3.263 0 0 1-3.272 3.257 3.264 3.264 0 0 1-3.27-3.256 3.264 3.264 0 0 1 3.27-3.256 3.263 3.263 0 0 1 3.271 3.256"/>
        </g>
        <path stroke="#2880C3" stroke-width="1.5" d="M56.01 13.97a3.263 3.263 0 0 1-3.272 3.257 3.264 3.264 0 0 1-3.27-3.256 3.264 3.264 0 0 1 3.27-3.256 3.263 3.263 0 0 1 3.271 3.256z"/>
    </g>
</svg>
