<svg xmlns="http://www.w3.org/2000/svg" width="50" height="71" viewBox="0 0 50 71">
    <g fill="none" fill-rule="evenodd">
        <path stroke="#2880C3" stroke-width="1.5" d="M16.28 35.716a.747.747 0 0 1-.748.747H9.486a.747.747 0 0 1-.747-.747v-6.05c0-.411.334-.745.747-.745h6.048c.412 0 .746.334.746.746v6.049zM.75 56.041v5.079a5.078 5.078 0 0 0 5.078 5.078h13.694M37.577 5.828A5.078 5.078 0 0 0 32.499.75H5.828A5.079 5.079 0 0 0 .75 5.828v2.59h36.827v-2.59z"/>
        <path stroke="#2880C3" stroke-width="1.5" d="M37.577 39.449V8.419H.75v47.623h12.31"/>
        <path stroke="#2880C3" stroke-width="1.5" d="M16.28 21.867a.747.747 0 0 1-.748.747H9.486a.747.747 0 0 1-.747-.747v-6.049c0-.412.334-.746.747-.746h6.048c.412 0 .746.334.746.746v6.05zM22.985 22.614a.747.747 0 0 1-.747-.747v-6.048c0-.413.335-.747.747-.747h6.05c.411 0 .745.334.745.747v4.909"/>
        <path fill="#2880C3" d="M16.47 4.79a.885.885 0 1 1-1.769 0 .885.885 0 0 1 1.77 0M20.048 4.79a.885.885 0 1 1-1.77 0 .885.885 0 0 1 1.77 0M23.852 4.79a.885.885 0 1 1-1.77 0 .885.885 0 0 1 1.77 0"/>
        <path fill="#C3E2F6" d="M45.766 41.578c-1.615 0-2.982 1.258-2.982 2.82v-2.82c0-1.742-1.344-3.155-3.002-3.155-1.651 0-2.99 1.401-3 3.134v-1.21a3.154 3.154 0 1 0-6.31 0V27.112a3.154 3.154 0 1 0-6.308 0V51.03l-6.151-8.8c-1.51-2.16-3.045-2.143-4.517-1.212-1.472.932-1.616 2.766-.848 4.585.76 1.803 6.46 14.01 10.062 18.776a10.99 10.99 0 0 0 1.55 1.847c1.65 1.58 3.865 2.79 6.408 3.44.523.132 1.059.242 1.608.328.87.133 1.77.205 2.693.205 2.35 0 6.068-.953 7.815-1.89l.059-.033c3.24-1.759 5.846-5.755 5.846-9.795V44.407c0-1.563-1.308-2.83-2.923-2.83"/>
        <path stroke="#2880C3" stroke-linecap="round" stroke-linejoin="round" stroke-width="1.5" d="M45.766 41.578c-1.615 0-2.982 1.258-2.982 2.82v-2.82c0-1.742-1.344-3.155-3.002-3.155-1.651 0-2.99 1.401-3 3.134v-1.21a3.154 3.154 0 1 0-6.31 0V27.112a3.154 3.154 0 1 0-6.308 0V51.03l-6.151-8.8c-1.51-2.16-3.045-2.143-4.517-1.212-1.472.932-1.616 2.766-.848 4.585.76 1.803 6.46 14.01 10.062 18.776a10.99 10.99 0 0 0 1.55 1.847c1.65 1.58 3.865 2.79 6.408 3.44.523.132 1.059.242 1.608.328.87.133 1.77.205 2.693.205 2.35 0 6.068-.953 7.815-1.89l.059-.033c3.24-1.759 5.846-5.755 5.846-9.795V44.407c0-1.563-1.308-2.83-2.923-2.83z"/>
        <path stroke="#2880C3" stroke-width="1.5" d="M36.782 41.5v5.103M30.473 40.346v5.002M42.784 44.398v3.578"/>
    </g>
</svg>
