<svg xmlns="http://www.w3.org/2000/svg" width="60" height="59" viewBox="0 0 60 59">
    <g fill="none" fill-rule="evenodd">
        <path fill="#C3E2F6" d="M8.427 10.01h19.852V.75H8.427z"/>
        <g stroke="#2880C3" stroke-width="1.5">
            <path d="M8.427 10.01h19.852V.75H8.427z"/>
            <path d="M8.427 10.01h19.852V.75H8.427zM1.366 57.609h57.357v-8.913H1.366zM48.479 14.814h5.267l4.977 33.743H1.366l4.862-33.743h27.145"/>
        </g>
        <path stroke="#2880C3" stroke-width="1.5" d="M13.983 10.01v4.804M22.376 10.01v4.804M30.884 22.743h20.14"/>
        <path fill="#FEFEFE" d="M48.479 22.743H33.373V2.196l2.662 2.76 2.43-2.547 2.355 2.546 2.585-2.546 2.392 2.546 2.682-2.759z"/>
        <g stroke="#2880C3" stroke-width="1.5">
            <path d="M48.479 22.743H33.373V2.196l2.662 2.76 2.43-2.547 2.355 2.546 2.585-2.546 2.392 2.546 2.682-2.759z"/>
            <path d="M48.479 22.743H33.373V2.196l2.662 2.76 2.43-2.547 2.355 2.546 2.585-2.546 2.392 2.546 2.682-2.759z"/>
        </g>
        <path stroke="#2880C3" stroke-width="1.5" d="M38.176 9.547h5.498M38.176 14.062h5.498M38.176 18.808h5.498M17.167 29.92h-1.794 1.794zM24.1 29.92h-1.793H24.1zM30.942 29.92h-1.794 1.794zM37.684 29.92h-1.793 1.794zM44.572 29.92h-1.794 1.794zM13.81 35.65h-1.794 1.794zM20.744 35.65H18.95h1.794zM27.585 35.65H25.79h1.794zM34.328 35.65h-1.794 1.794zM41.215 35.65h-1.794 1.794zM47.998 35.65h-1.794 1.794zM10.398 41.496H8.604h1.794zM17.332 41.496h-1.794 1.794zM24.173 41.496h-1.794 1.794zM30.916 41.496h-1.794 1.794zM37.803 41.496H36.01h1.794zM44.543 41.496h-1.794 1.794zM51.43 41.496h-1.794 1.794zM5.38 53.152H24.1M35.888 53.152H54.61"/>
        <path fill="#2880C3" d="M31.417 53.288a1.39 1.39 0 1 1-2.778 0 1.39 1.39 0 0 1 2.778 0"/>
    </g>
</svg>
