<?xml version="1.0" encoding="UTF-8"?>
<svg width="61px" height="61px" viewBox="0 0 61 61" version="1.1" xmlns="http://www.w3.org/2000/svg" xmlns:xlink="http://www.w3.org/1999/xlink">
    <!-- Generator: sketchtool 48.2 (47327) - http://www.bohemiancoding.com/sketch -->
    <title>050696C7-714C-48F2-8A46-03CA85096E0D</title>
    <desc>Created with sketchtool.</desc>
    <defs>
        <linearGradient x1="91.9745774%" y1="7.75806865%" x2="12.5024014%" y2="87.2134349%" id="linearGradient-1">
            <stop stop-color="#A445B2" offset="0%"></stop>
            <stop stop-color="#D41872" offset="51.7099809%"></stop>
            <stop stop-color="#FF0066" offset="100%"></stop>
        </linearGradient>
    </defs>
    <g id="Magento-ERP" stroke="none" stroke-width="1" fill="none" fill-rule="evenodd" transform="translate(-931.000000, -1045.000000)">
        <path d="M965.114954,1063.15106 C964.824023,1063.8822 963.995233,1064.23957 963.264129,1063.94827 C961.433123,1063.21973 959.493932,1062.85033 957.500708,1062.85033 C948.871032,1062.85033 941.850092,1069.87085 941.850092,1078.49994 C941.850092,1087.12927 948.871032,1094.14967 957.500708,1094.14967 C966.129676,1094.14967 973.149672,1087.12927 973.149672,1078.49994 C973.149672,1076.5136 972.782645,1074.57775 972.058383,1072.74607 C971.768985,1072.01411 972.127753,1071.18612 972.859684,1070.89659 C973.591968,1070.60765 974.419696,1070.96608 974.708976,1071.69804 C975.56549,1073.8649 976,1076.15328 976,1078.49994 C976,1088.70102 967.701132,1097 957.500708,1097 C947.299222,1097 939,1088.70102 939,1078.49994 C939,1068.29898 947.29934,1060 957.500708,1060 C959.856358,1060 962.15007,1060.43748 964.317783,1061.30004 C965.049005,1061.59087 965.406004,1062.41969 965.114954,1063.15106 Z M983.148659,1069.9252 C983.918825,1069.70548 984.720911,1070.15031 984.941112,1070.92009 C985.643597,1073.37559 986,1075.92589 986,1078.49994 C986,1093.66371 973.66391,1106 958.50084,1106 C943.33669,1106 931,1093.66359 931,1078.49994 C931,1063.33653 943.33669,1051.00012 958.50084,1051 C961.080979,1051 963.636157,1051.35807 966.094975,1052.06401 C966.864541,1052.28505 967.309024,1053.08771 967.088102,1053.85725 C966.867181,1054.62679 966.064495,1055.07114 965.294929,1054.85046 C963.096153,1054.21916 960.810377,1053.89913 958.50084,1053.89913 C944.935341,1053.89913 933.899101,1064.93501 933.899101,1078.49994 C933.899101,1092.06499 944.935341,1103.10099 958.50084,1103.10099 C972.065379,1103.10099 983.100899,1092.06499 983.100899,1078.49994 C983.100899,1076.19576 982.782177,1073.91366 982.153852,1071.71759 C981.93365,1070.94793 982.378974,1070.14551 983.148659,1069.9252 Z M958.000888,1071.86105 C954.063961,1071.86105 950.861152,1075.06388 950.860916,1079.00095 C950.860916,1082.93695 954.063843,1086.13907 958.000651,1086.13907 C961.936631,1086.13907 965.138729,1082.93707 965.138729,1079.00095 C965.138729,1078.79382 965.12961,1078.58551 965.111491,1078.38182 C965.041265,1077.59488 965.622259,1076.89995 966.409313,1076.82973 C967.195893,1076.76258 967.891167,1077.34062 967.961157,1078.12744 C967.986973,1078.41533 968,1078.70926 968,1079.00083 C968,1084.51438 963.514409,1089 958.000888,1089 C952.48642,1089 948,1084.51438 948,1079.00083 C948,1073.48633 952.48642,1069 958.000888,1069 C958.308202,1069 958.611844,1069.01362 958.903643,1069.0405 C959.690342,1069.11322 960.269323,1069.80968 960.196846,1070.59638 C960.12437,1071.38308 959.428385,1071.96183 958.640976,1071.88959 C958.435982,1071.87064 958.220685,1071.86105 958.000888,1071.86105 Z M980.597942,1064.39508 C980.32733,1064.66569 979.952165,1064.82114 979.568678,1064.82114 L974.238936,1064.82114 L983.151867,1055.90819 L989.084094,1055.90892 L980.597942,1064.39508 Z M972.604896,1056.40202 L981.091772,1047.91622 L981.091772,1053.84797 L972.178719,1062.76104 L972.178719,1057.43117 C972.17884,1057.04225 972.330064,1056.67661 972.604896,1056.40202 Z M991.776822,1054.79367 C991.324235,1053.70085 990.267476,1052.99465 989.084456,1052.99465 L984.005186,1052.99465 L984.005186,1047.9155 C984.005186,1046.73259 983.298991,1045.67571 982.206174,1045.22313 C981.11372,1044.77066 979.867629,1045.01872 979.031555,1045.85491 L970.54468,1054.34192 C969.71958,1055.1669 969.265185,1056.26406 969.265185,1057.43129 L969.265185,1065.67446 L957.426539,1077.51312 C956.85782,1078.08196 956.85782,1079.00438 957.426539,1079.57334 C957.711018,1079.8577 958.084013,1080 958.456647,1080 C958.829401,1080 959.202396,1079.8577 959.486634,1079.57334 L971.325401,1067.73456 L979.568678,1067.73456 C980.736021,1067.73456 981.833059,1067.28016 982.658038,1066.4553 L991.145034,1057.96805 C991.981469,1057.13185 992.229288,1055.88588 991.776822,1054.79367 Z" id="Rectangle-8" fill="url(#linearGradient-1)"></path>
    </g>
</svg>