<?xml version="1.0" encoding="UTF-8"?>
<svg width="75px" height="86px" viewBox="0 0 75 86" version="1.1" xmlns="http://www.w3.org/2000/svg" xmlns:xlink="http://www.w3.org/1999/xlink">
    <!-- Generator: sketchtool 48.2 (47327) - http://www.bohemiancoding.com/sketch -->
    <title>5D2D90DD-6F2A-4D50-8008-6A2B1FDEEB97</title>
    <desc>Created with sketchtool.</desc>
    <defs>
        <linearGradient x1="100%" y1="49.9996036%" x2="0%" y2="50%" id="linearGradient-1">
            <stop stop-color="#A445B2" offset="0%"></stop>
            <stop stop-color="#D41872" offset="51.7099809%"></stop>
            <stop stop-color="#FF0066" offset="100%"></stop>
        </linearGradient>
    </defs>
    <g id="Magento-ERP" stroke="none" stroke-width="1" fill="none" fill-rule="evenodd" transform="translate(-627.000000, -2547.000000)">
        <path d="M702,2598.2696 C702,2600.86165 699.196328,2602.30434 697.146584,2603.00819 L698.339323,2606.55076 C698.553132,2607.18755 698.385265,2607.88732 697.906992,2608.36141 L696.434475,2609.81926 C696.599986,2610.1289 696.675379,2610.48987 696.628847,2610.86482 C696.507512,2611.83692 695.592784,2612.51977 694.632114,2612.39906 C694.857115,2612.72446 694.924851,2612.85566 695.288857,2613.38923 C695.825442,2614.18464 696.642394,2615.38707 696.642394,2617.71729 C696.642394,2623.07751 690.614499,2624.05368 686.217563,2624.76453 C680.349878,2625.71505 674.010398,2629.106 673.378394,2630.3685 C673.378394,2631.34467 672.607384,2631.99837 671.617852,2631.99837 C670.631855,2631.99837 669.857311,2631.06827 669.857311,2630.09267 C669.857311,2625.9623 680.921214,2622.04185 685.639159,2621.27736 C692.539373,2620.15656 693.071246,2619.09642 693.071246,2617.71729 C693.071246,2616.46529 692.757306,2616.00228 692.321441,2615.35908 C691.885576,2614.71121 691.285967,2613.82775 691.285967,2612.41306 C691.285967,2610.97795 691.900301,2610.13648 692.41097,2609.68688 C692.636559,2609.48978 692.87334,2609.34108 693.108943,2609.2262 C692.996442,2608.66639 693.158419,2608.06284 693.596051,2607.62957 L694.600308,2606.6359 L693.164309,2602.3679 C693.00351,2601.89031 693.060644,2601.36724 693.310383,2600.9293 C693.564245,2600.49369 693.992453,2600.1823 694.493109,2600.07966 C696.421517,2599.6773 698.271587,2598.7332 698.435331,2598.24511 C698.303982,2596.85549 694.342912,2589.36331 690.749971,2583.25318 C690.521436,2582.85665 690.450166,2582.38314 690.560899,2581.93762 C690.564433,2581.90263 691.285967,2578.92862 691.285967,2573.51884 C691.285967,2568.65371 683.69308,2550.53616 660.928557,2550.53616 C637.992633,2550.53616 630.571148,2568.40238 630.571148,2577.05441 C630.571148,2584.93612 635.571227,2593.5211 639.588842,2600.42022 C642.535643,2605.47254 644.856918,2609.46412 644.856918,2612.41306 C644.856918,2619.09992 634.814353,2630.0641 633.667557,2631.29102 C633.317687,2631.66948 632.838824,2631.86075 632.357017,2631.86075 C631.924686,2631.86075 631.488821,2631.70505 631.146019,2631.39016 C630.42154,2630.72888 630.37442,2629.61158 631.046477,2628.89432 C633.892557,2625.83517 641.28577,2616.91489 641.28577,2612.41306 C641.28577,2610.41173 638.960961,2606.41664 636.495967,2602.18421 C632.267488,2594.9253 627,2585.88022 627,2577.05441 C627,2564.57698 637.524962,2547 660.928557,2547 C684.763895,2547 694.857115,2565.96952 694.857115,2573.51884 C694.857115,2577.87489 694.42125,2580.78534 694.178579,2582.05775 C696.782578,2586.51701 702,2595.76268 702,2598.2696 Z M648.6123,2580.44645 L658.653906,2590.64529 C658.981179,2590.97708 659.167447,2591.43145 659.167447,2591.90586 L659.167447,2631.21376 C659.167447,2632.19911 658.379437,2633 657.408062,2633 C656.437267,2633 655.649258,2632.19911 655.649258,2631.21376 L655.649258,2592.64605 L645.607072,2582.45074 C645.280379,2582.11542 645.094112,2581.66164 645.094112,2581.18606 L645.094112,2574.03932 C645.094112,2573.56433 645.280379,2573.11055 645.607072,2572.77405 L646.975353,2571.3856 C646.898177,2571.09153 646.852916,2570.78449 646.852916,2570.46566 C646.852916,2568.49379 648.429515,2566.89259 650.371104,2566.89259 C652.313855,2566.89259 653.889874,2568.49379 653.889874,2570.46566 C653.889874,2572.43872 652.313855,2574.03932 650.371104,2574.03932 C650.056597,2574.03932 649.753115,2573.99336 649.462399,2573.91439 L648.6123,2574.77952 L648.6123,2580.44645 Z M682.511198,2579.41163 C683.497933,2579.41163 684.298403,2580.19714 684.298403,2581.16484 C684.298403,2582.13313 683.497933,2582.91863 682.511198,2582.91863 L657.492688,2582.91863 C657.017594,2582.91863 656.56313,2582.73296 656.227145,2582.40672 L652.653324,2578.89915 C651.956597,2578.21603 651.956597,2577.10371 652.653324,2576.42001 C653.350051,2575.73632 654.482969,2575.73632 655.180286,2576.42001 L658.233034,2579.41163 L682.511198,2579.41163 Z M681.211048,2569.40833 C681.916456,2568.72502 683.063491,2568.72502 683.768899,2569.40833 C684.474904,2570.09221 684.474904,2571.20273 683.768899,2571.88661 L680.150548,2575.39216 C679.810377,2575.72167 679.350847,2575.90724 678.869236,2575.90724 L668.013588,2575.90724 C667.015155,2575.90724 666.204114,2575.12219 666.204114,2574.15446 C666.204114,2573.18732 667.015155,2572.40227 668.013588,2572.40227 L678.120262,2572.40227 L681.211048,2569.40833 Z M664.651112,2565.03267 L671.205107,2565.03267 L672.089462,2564.20184 C672.008683,2563.91867 671.961662,2563.62247 671.961662,2563.31552 C671.961662,2561.41996 673.599558,2559.8812 675.616635,2559.8812 C677.634918,2559.8812 679.272211,2561.41996 679.272211,2563.31552 C679.272211,2565.21107 677.634918,2566.74926 675.616635,2566.74926 C675.2899,2566.74926 674.975222,2566.70509 674.673805,2566.62976 L673.25534,2567.96181 C672.912329,2568.28462 672.448148,2568.46642 671.961662,2568.46642 L665.40827,2568.46642 L662.286201,2571.39895 C661.931735,2571.73253 661.463937,2571.90073 660.996139,2571.90073 C660.528341,2571.90073 660.060543,2571.73253 659.701858,2571.39895 C658.98931,2570.7301 658.98931,2569.64102 659.701858,2568.9716 L663.357434,2565.53785 C663.701048,2565.21447 664.165229,2565.03267 664.651112,2565.03267 Z M641.575439,2583.61895 L651.616493,2593.69276 C651.943748,2594.02048 652.130005,2594.46928 652.130005,2594.93787 L652.130005,2630.23403 C652.130005,2631.20788 651.34204,2631.99837 650.370718,2631.99837 C649.399976,2631.99837 648.61201,2631.20788 648.61201,2630.23403 L648.61201,2595.66899 L638.570376,2585.59576 C638.243701,2585.26746 638.057444,2584.81924 638.057444,2584.34949 L638.057444,2566.70199 C638.057444,2566.23282 638.243701,2565.78402 638.570376,2565.45222 L645.606947,2558.39311 C645.938264,2558.06538 646.384469,2557.87795 646.852722,2557.87795 L653.889293,2557.87795 C654.356967,2557.87795 654.804332,2558.06538 655.134488,2558.39311 L658.653064,2561.92295 C659.338908,2562.611 659.338908,2563.72979 658.653064,2564.41841 C657.96722,2565.10645 656.851419,2565.10645 656.166155,2564.41841 L653.161092,2561.4078 L647.581504,2561.4078 L641.575439,2567.43252 L641.575439,2583.61895 Z M667.335738,2593.42434 L663.717447,2589.91937 C663.012051,2589.23606 663.012051,2588.12439 663.717447,2587.44109 C664.422844,2586.75778 665.569859,2586.75778 666.275853,2587.44109 L669.365991,2590.43098 L675.105246,2590.43098 L678.195384,2587.43762 C678.900781,2586.75431 680.048393,2586.75431 680.753193,2587.43762 C681.459186,2588.12092 681.459186,2589.23202 680.753193,2589.9159 L677.134902,2593.42087 C676.795333,2593.75039 676.335214,2593.93653 675.853611,2593.93653 L668.616433,2593.93653 C668.136023,2593.93653 667.675904,2593.75039 667.335738,2593.42434 Z M687.789747,2590.453 C688.495892,2591.15089 688.495892,2592.28416 687.789747,2592.98205 L673.844731,2606.76825 L673.844731,2613.18143 C673.844731,2614.16899 673.03353,2614.97071 672.034302,2614.97071 C671.036268,2614.97071 670.225067,2614.16899 670.225067,2613.18143 L670.225067,2606.02729 C670.225067,2605.55239 670.417272,2605.09755 670.753333,2604.76129 L685.230793,2590.453 C685.936938,2589.7557 687.083602,2589.7557 687.789747,2590.453 Z M672.235544,2620.37989 C672.235544,2622.37024 670.614483,2623.98535 668.616806,2623.98535 C666.619128,2623.98535 664.99747,2622.37024 664.99747,2620.37989 C664.99747,2620.05818 665.044025,2619.74836 665.123407,2619.45162 L663.716617,2618.04999 C663.379991,2617.71162 663.1884,2617.25314 663.1884,2616.77443 L663.1884,2602.3508 C663.1884,2601.8715 663.379991,2601.41301 663.716617,2601.07405 L667.335356,2597.46859 C668.041436,2596.76569 669.188594,2596.76569 669.894078,2597.46859 C670.600158,2598.17148 670.600158,2599.31443 669.894078,2600.01792 L666.807138,2603.0977 L666.807138,2616.02753 L667.682726,2616.89931 C667.981154,2616.82022 668.29331,2616.77443 668.616806,2616.77443 C670.614483,2616.77443 672.235544,2618.38895 672.235544,2620.37989 Z M681.294878,2604.46532 C681.98158,2603.78197 683.096673,2603.78197 683.783376,2604.46532 C684.470078,2605.14924 684.470078,2606.25983 683.783376,2606.94375 L680.781157,2609.93788 L680.781157,2616.22328 C680.781157,2617.19049 679.992872,2617.97559 679.021156,2617.97559 C678.050021,2617.97559 677.261735,2617.19049 677.261735,2616.22328 L677.261735,2609.21175 C677.261735,2608.74578 677.448068,2608.30062 677.775456,2607.97051 L681.294878,2604.46532 Z" id="Rectangle-7" fill="url(#linearGradient-1)"></path>
    </g>
</svg>