<svg xmlns="http://www.w3.org/2000/svg" width="80" height="79" viewBox="0 0 80 79">
    <defs>
        <linearGradient id="a" x1="98.853%" x2="-7.399%" y1="69.89%" y2="-5.687%">
            <stop offset="0%" stop-color="#8836FF"/>
            <stop offset="48.607%" stop-color="#6145FB"/>
            <stop offset="100%" stop-color="#4351F8"/>
        </linearGradient>
    </defs>
    <path fill="url(#a)" fill-rule="evenodd" d="M77.501 67.323a.2.2 0 0 1-.197.197H38.243a20.27 20.27 0 0 0 2.592-9.938c0-11.2-9.065-20.32-20.244-20.413V10.81a.2.2 0 0 1 .197-.199h16.459v10.231a.869.869 0 0 0 1.251.78l10.483-5.146 10.616 5.147a.869.869 0 0 0 1.248-.78V10.61h16.459a.2.2 0 0 1 .197.198v56.515zm-57.084 8.94c-10.3 0-18.68-8.38-18.68-18.68 0-10.3 8.38-18.682 18.68-18.682 10.3 0 18.681 8.381 18.681 18.681s-8.381 18.68-18.681 18.68zM28.69 2.807a.836.836 0 0 1 .571-.226H41.06l-3.457 6.291H22.246l6.444-6.065zm10.294 7.802h20.123v8.844l-9.749-4.727a.864.864 0 0 0-.761.002l-9.613 4.717V10.61zm17.211-7.762l2.483 6.025H39.584l3.312-6.025h13.299zm13.206-.04l6.445 6.065H60.558l-2.593-6.29h10.866c.213 0 .415.08.57.225zm9.502 6.914c.211.31.335.684.335 1.086v56.515a1.937 1.937 0 0 1-1.934 1.935H37.228c-.024 0-.043-.01-.066-.013C33.468 74.532 27.342 78 20.417 78 9.159 78 0 68.841 0 57.582 0 46.85 8.324 38.032 18.854 37.23V10.808c0-.402.124-.776.334-1.086a.863.863 0 0 1 .272-.613l8.039-7.566a2.568 2.568 0 0 1 1.762-.699h39.57c.657 0 1.282.25 1.762.7l8.039 7.565a.862.862 0 0 1 .271.613zm-7.092 43.526h-8.765a.869.869 0 1 0 0 1.737h8.765a.868.868 0 1 0 0-1.737zm0 6.93H59.254a.869.869 0 1 0 0 1.738h12.557a.868.868 0 1 0 0-1.737zM57.921 36.17c0 .967-.786 1.752-1.751 1.752H41.923a1.753 1.753 0 0 1-1.752-1.752v-1.69c0-.966.786-1.752 1.752-1.752H56.17c.965 0 1.75.786 1.75 1.752v1.69zm1.737 0a3.493 3.493 0 0 1-3.488 3.489H41.923a3.493 3.493 0 0 1-3.49-3.49v-1.69a3.494 3.494 0 0 1 3.49-3.49H56.17a3.493 3.493 0 0 1 3.488 3.49v1.69zM21.019 57.12l8.014 5.386a.868.868 0 1 1-.97 1.442l-8.397-5.644a.872.872 0 0 1-.384-.722V44.565a.868.868 0 1 1 1.738 0V57.12z" transform="translate(0 .155)"/>
</svg>
