<?xml version="1.0" encoding="UTF-8"?>
<svg width="83px" height="92px" viewBox="0 0 83 92" version="1.1" xmlns="http://www.w3.org/2000/svg" xmlns:xlink="http://www.w3.org/1999/xlink">
    <!-- Generator: Sketch 46.2 (44496) - http://www.bohemiancoding.com/sketch -->
    <title>Group 20@1x</title>
    <desc>Created with Sketch.</desc>
    <defs>
        <path d="M48.823121,2.58386203 L75.1541834,17.7646569 L75.1541834,17.7646569 C79.7996743,20.4429477 82.6621248,25.3973601 82.6621248,30.7596196 L82.6621248,61.0845427 L82.6621248,61.0845427 C82.6621248,66.4468022 79.7996743,71.4012146 75.1541834,74.0795055 L48.823121,89.2603003 L48.823121,89.2603003 C44.1861429,91.9336833 38.4759819,91.9336833 33.8390038,89.2603003 L7.50794135,74.0795055 L7.50794135,74.0795055 C2.86245053,71.4012146 -8.8817842e-16,66.4468022 -3.55271368e-15,61.0845427 L-2.48689958e-14,30.7596196 L-2.84217094e-14,30.7596196 C-3.10862447e-14,25.3973601 2.86245053,20.4429477 7.50794135,17.7646569 L33.8390038,2.58386203 L33.8390038,2.58386203 C38.4759819,-0.0895209513 44.1861429,-0.0895209513 48.823121,2.58386203 Z" id="path-1"></path>
        <polygon id="path-3" points="0 37.6576577 0 0.300234234 55.9999321 0.300234234 55.9999321 37.6576577"></polygon>
    </defs>
    <g id="Page-1" stroke="none" stroke-width="1" fill="none" fill-rule="evenodd">
        <g id="Magestore-POS-viewmoreReleasenote" transform="translate(-1379.000000, -4441.000000)">
            <g id="Group-20" transform="translate(1379.000000, 4441.000000)">
                <g id="Page-1">
                    <mask id="mask-2" fill="white">
                        <use xlink:href="#path-1"></use>
                    </mask>
                    <use id="Mask" fill="#B938FF" xlink:href="#path-1"></use>
                </g>
                <g id="GiftCard" transform="translate(14.000000, 27.000000)">
                    <g>
                        <path d="M17.6796412,16.6999045 C17.0181624,16.9878144 16.9129503,16.9063369 16.9244897,16.1514721 C17.0931685,14.1573279 17.1549382,12.1440126 17.9470836,10.2607874 C18.5176048,8.90476937 19.4733382,7.99345405 20.9208533,7.6428955 C22.3816048,7.28925586 23.6563685,8.12594054 23.9774352,9.63087748 C24.3263321,11.2679586 23.7211927,12.5832378 22.5801503,13.6551117 C21.1563927,14.9940126 19.459423,15.9251838 17.6796412,16.6999045 M12.3270594,17.7368595 C10.1172655,17.6269676 8.06359273,17.0443009 6.40531394,15.4886973 C5.49641697,14.6355802 4.98325333,13.5506973 5.01074424,12.260409 C5.01074424,12.0700667 4.9961503,11.8780126 5.01312,11.6890396 C5.10068364,10.6921387 5.77166545,10.2299766 6.7324897,10.4946072 C8.15285333,10.8862468 9.19072,11.8547333 10.1800533,12.8701207 C11.3248291,14.0446973 12.1200291,15.4647333 12.8171442,16.9412559 C13.0577745,17.4510036 12.8782352,17.7645892 12.3270594,17.7368595 M23.5223079,22.5430036 C22.4725624,20.8668955 21.3321988,19.2787694 19.3409745,18.4557784 C19.5150836,18.3493099 19.60672,18.2948775 19.6969988,18.238391 C20.9103321,17.4852378 22.1857745,16.8169856 23.3220655,15.9597604 C25.421217,14.3754 26.6264048,12.3059405 26.227617,9.54152613 C25.8013382,6.58882342 23.1452412,4.69840901 20.3567806,5.45087748 C18.0071564,6.0848955 16.494817,7.59462523 15.6901139,9.87599459 C15.0547685,11.6767153 14.8277139,13.5472739 14.7523685,15.6256342 C14.6149139,15.414409 14.5711321,15.3442288 14.5249745,15.275418 C13.6727564,14.008409 12.9087806,12.6674541 11.9445624,11.4942468 C10.8092897,10.1135802 9.38790788,9.03588649 7.67193212,8.43404865 C5.32434424,7.61105766 3.35178667,8.68327387 2.86984727,11.1115081 C2.4089503,13.4336162 3.15290182,15.4517243 4.79964121,17.0542288 C6.9785503,19.1746973 9.71813818,19.9531838 12.6847806,19.9747514 C13.1371927,19.9781748 13.4847321,20.010355 13.7633745,20.4174 C13.3832533,21.2955081 12.8069624,22.0370216 12.0704776,22.646391 C10.0185018,24.343382 8.67416242,26.4600847 8.22276848,29.1238505 C8.11518061,29.7588955 8.44167758,30.3922288 8.98776242,30.5322468 C9.67401697,30.7082108 10.3365139,30.3384811 10.4390109,29.6301748 C10.7631321,27.3816703 11.9391321,25.6785171 13.6405139,24.2646432 C14.57792,23.4847874 15.3323927,22.5371838 15.8058473,21.3872559 C16.2161745,20.3900126 17.0999564,20.0096703 18.0984533,20.3985712 C18.272223,20.4660126 18.4412412,20.5468054 18.6102594,20.6262288 C19.9338958,21.2482649 20.7107685,22.406409 21.5198836,23.5590757 C22.1134836,24.4050036 22.7583321,25.242373 23.5128048,25.9369856 C24.5527079,26.8948595 25.9133382,27.2142649 27.2743079,27.4443189 C27.8967564,27.5497604 28.5151321,27.0985532 28.6088048,26.5056162 C28.7075685,25.8787874 28.2507442,25.2632559 27.5729745,25.1903369 C25.7735079,24.9969135 24.4698958,24.0564991 23.5223079,22.5430036" id="Fill-1" fill="#FFFFFF"></path>
                        <path d="M19.2944436,35.0065243 C18.6329648,31.5245604 17.9378861,28.0497856 17.2394133,24.5007225 C16.7574739,25.0200559 16.2962376,25.4873532 15.8781042,25.9909387 C15.7806982,26.1080198 15.7847709,26.3565604 15.8180315,26.5294432 C16.3179588,29.1028306 16.8314618,31.6731369 17.3402133,34.2444703 C17.4240436,34.6669207 17.5007467,35.0914252 17.5944194,35.5895333 L19.7594133,35.5895333 C19.4804315,35.539209 19.3650376,35.3776234 19.2944436,35.0065243" id="Fill-3" fill="#FFFFFF"></path>
                        <g id="Group-7" transform="translate(0.000000, 0.042108)">
                            <mask id="mask-4" fill="white">
                                <use xlink:href="#path-3"></use>
                            </mask>
                            <g id="Clip-6"></g>
                            <path d="M53.9245382,8.80863964 C53.8481745,8.84732432 53.7545018,8.87608108 53.6350352,8.89901802 C50.4559321,9.50359459 47.2815806,10.1348739 44.1062109,10.7603333 C40.6922473,11.4326937 37.2782836,12.1071081 33.8646594,12.7801532 C32.1208533,13.1238649 30.3760291,13.4634685 28.6345988,13.8188198 C28.512417,13.8438108 28.3725867,13.9591802 28.3087806,14.0718108 C27.9836412,14.6435225 27.6812412,15.2282432 27.3272533,15.8906757 C36.1990109,14.1437027 45.0283442,12.4046036 53.9245382,10.6528378 L53.9245382,35.0392523 C53.9245382,35.3285315 53.6913745,35.5640631 53.4042473,35.5640631 L2.59595636,35.5640631 C2.30882909,35.5640631 2.07532606,35.3285315 2.07532606,35.0392523 L2.07532606,20.8649099 C2.87392,20.7622072 3.65961697,20.5544054 4.49418667,20.3822072 C3.9433503,19.9265495 3.44376242,19.4736306 2.89801697,19.0860991 C2.73816242,18.9720991 2.44798061,19.0244775 2.2188897,19.0344054 C2.17137455,19.0368018 2.12352,19.0409099 2.07532606,19.046045 L2.07532606,2.91863964 C2.07532606,2.62901802 2.30882909,2.39382883 2.59595636,2.39382883 L11.0869139,2.39382883 C11.1201745,2.46914414 11.1446109,2.56054955 11.1642958,2.67146847 C11.4459927,4.26815315 11.7185261,5.86997297 12.1047564,7.44235135 C12.2177745,7.90211712 12.6969988,8.26979279 13.0350352,8.7144955 C13.7233261,7.78572072 13.8957382,6.91172072 13.6357624,5.89599099 C13.3455806,4.76112613 13.1477139,3.59921622 12.90912,2.39382883 L53.4042473,2.39382883 C53.6913745,2.39382883 53.9245382,2.62901802 53.9245382,2.91863964 L53.9245382,8.80863964 Z M53.4042473,0.300063063 L2.59595636,0.300063063 C1.16473212,0.300063063 -6.78787879e-05,1.47498198 -6.78787879e-05,2.91863964 L-6.78787879e-05,35.0392523 C-6.78787879e-05,36.4829099 1.16439273,37.6578288 2.59595636,37.6578288 L53.4042473,37.6578288 C54.8354715,37.6578288 55.9999321,36.4832523 55.9999321,35.0392523 L55.9999321,2.91863964 C55.9999321,1.47498198 54.8358109,0.300063063 53.4042473,0.300063063 L53.4042473,0.300063063 Z" id="Fill-5" fill="#FFFFFF" mask="url(#mask-4)"></path>
                        </g>
                    </g>
                </g>
            </g>
        </g>
    </g>
</svg>