<svg xmlns="http://www.w3.org/2000/svg" width="89" height="67" viewBox="0 0 89 67">
    <defs>
        <path id="a" d="M38.142 0H76.18v65.527H.106V0z"/>
        <linearGradient id="b" x1="98.853%" x2="-7.399%" y1="69.89%" y2="-5.687%">
            <stop offset="0%" stop-color="#8836FF"/>
            <stop offset="100%" stop-color="#4351F8"/>
        </linearGradient>
    </defs>
    <g fill="none" fill-rule="evenodd">
        <path fill="url(#b)" d="M37.675 58.7c0 2.915-2.349 5.286-5.237 5.286-2.89 0-5.238-2.371-5.238-5.286 0-2.916 2.349-5.287 5.238-5.287 2.888 0 5.237 2.37 5.237 5.287m31.528-5.287c2.888 0 5.239 2.37 5.239 5.287 0 2.915-2.35 5.286-5.239 5.286-2.888 0-5.237-2.371-5.237-5.286 0-2.916 2.35-5.287 5.237-5.287M87.813 9.86c.187.262.238.601.134.908L76.438 45.236h7.186c.552 0 .998.45.998 1.007 0 .557-.446 1.008-.998 1.008H37.536l-1.903 4.908a7.305 7.305 0 0 1 3.961 5.533h22.453c.488-3.549 3.507-6.294 7.156-6.294 3.99 0 7.234 3.276 7.234 7.302S73.192 66 69.203 66c-3.65 0-6.668-2.744-7.156-6.293H39.594C39.106 63.257 36.088 66 32.438 66c-3.989 0-7.234-3.274-7.234-7.3s3.245-7.302 7.234-7.302c.443 0 .876.047 1.297.124l2.054-5.296L20.107 2.014H13.08c-.55 0-.998-.45-.998-1.007C12.081.45 12.53 0 13.08 0h7.732a1 1 0 0 1 .939.668l15.808 44.568h36.775l11.279-33.78H41.79c-.552 0-.998-.452-.998-1.008 0-.557.446-1.007.998-1.007h45.211c.321 0 .623.156.81.42zm-69.058 3.078c0 .557-.446 1.007-.998 1.007H.998c-.552 0-.998-.45-.998-1.007 0-.557.446-1.007.998-1.007h16.759c.552 0 .998.45.998 1.007zM27.2 34.18c0 .557-.447 1.007-.998 1.007H2.492c-.552 0-.998-.45-.998-1.007 0-.557.446-1.007.998-1.007h23.71c.551 0 .998.45.998 1.007zM12.082 23.625c0-.557.446-1.007.998-1.007h9.576c.551 0 .998.45.998 1.007 0 .557-.447 1.007-.998 1.007H13.08c-.552 0-.998-.45-.998-1.007zm-1.925 20.497c.552 0 .998.45.998 1.007 0 .557-.446 1.007-.998 1.007h-6.43c-.552 0-.998-.45-.998-1.007 0-.557.446-1.007.998-1.007h6.43zm19.382 1.007c0 .557-.447 1.007-.998 1.007H14.38c-.553 0-.999-.45-.999-1.007 0-.557.446-1.007.998-1.007h14.16c.552 0 .999.45.999 1.007z"/>
    </g>
</svg>
