<?xml version="1.0" encoding="UTF-8"?>
<svg width="83px" height="92px" viewBox="0 0 83 92" version="1.1" xmlns="http://www.w3.org/2000/svg" xmlns:xlink="http://www.w3.org/1999/xlink">
    <!-- Generator: Sketch 46.2 (44496) - http://www.bohemiancoding.com/sketch -->
    <title>Group 18@1x</title>
    <desc>Created with Sketch.</desc>
    <defs>
        <path d="M48.823121,2.58386203 L75.1541834,17.7646569 L75.1541834,17.7646569 C79.7996743,20.4429477 82.6621248,25.3973601 82.6621248,30.7596196 L82.6621248,61.0845427 L82.6621248,61.0845427 C82.6621248,66.4468022 79.7996743,71.4012146 75.1541834,74.0795055 L48.823121,89.2603003 L48.823121,89.2603003 C44.1861429,91.9336833 38.4759819,91.9336833 33.8390038,89.2603003 L7.50794135,74.0795055 L7.50794135,74.0795055 C2.86245053,71.4012146 -8.8817842e-16,66.4468022 -3.55271368e-15,61.0845427 L-2.48689958e-14,30.7596196 L-2.84217094e-14,30.7596196 C-3.10862447e-14,25.3973601 2.86245053,20.4429477 7.50794135,17.7646569 L33.8390038,2.58386203 L33.8390038,2.58386203 C38.4759819,-0.0895209513 44.1861429,-0.0895209513 48.823121,2.58386203 Z" id="path-1"></path>
    </defs>
    <g id="Page-1" stroke="none" stroke-width="1" fill="none" fill-rule="evenodd">
        <g id="Magestore-POS-viewmoreReleasenote" transform="translate(-764.000000, -4421.000000)">
            <g id="Group-18" transform="translate(764.000000, 4421.000000)">
                <g id="userguide-copy-3">
                    <g id="Page-1">
                        <mask id="mask-2" fill="white">
                            <use xlink:href="#path-1"></use>
                        </mask>
                        <use id="Mask" fill="#5F46FB" xlink:href="#path-1"></use>
                    </g>
                </g>
                <g id="reward" transform="translate(14.000000, 17.000000)" fill="#FFFFFF">
                    <g>
                        <path d="M49.7028049,41.1100981 C46.5628658,43.8164225 43.4027497,46.5000154 40.231424,49.1700324 C39.635079,49.6720221 38.9512999,50.074561 38.2947439,50.5029887 C37.8325926,50.8044983 37.6634894,51.1909357 37.8207425,51.7172356 C37.9943295,52.2975231 38.1701584,52.8771791 38.330294,53.4612552 C38.6457612,54.6104644 38.0494162,55.6943202 36.933271,56.0191928 C35.9231355,56.3124937 34.8835351,55.7211561 34.5097786,54.6303545 C34.3877553,54.272016 34.300001,53.902943 34.1802195,53.543973 C33.9739649,52.9239052 33.5255852,52.685539 32.8821603,52.8756005 C29.8370215,53.7738148 26.7227041,54.2088726 23.5536204,54.0140753 C21.7975733,53.9057845 20.0504937,53.608695 18.3104602,53.3273913 C17.2141718,53.1502742 16.9480264,53.2288876 16.6290363,54.2979047 C16.3971599,55.0761467 15.9974614,55.6880058 15.1903779,55.9399478 C14.4780947,56.1622125 13.8141725,56.0207713 13.2697114,55.5004701 C12.7031516,54.9583843 12.4949753,54.2922218 12.6749678,53.5285029 C12.7441463,53.2345705 12.8568818,52.9507411 12.9491199,52.662176 C13.2104612,51.8488895 13.0852352,51.539487 12.3194667,51.1416838 C9.89693518,49.8848152 7.73862741,48.2926554 5.94927209,46.2386019 C3.46204577,43.3842062 2.01281849,40.0975943 1.92506418,36.3156227 C1.83923149,32.5949001 3.08700817,29.2827151 5.42690972,26.380962 C8.66325043,22.3666228 12.9487997,19.9782252 17.9261347,18.7333538 C23.344163,17.3779816 28.7003789,17.6839111 33.9723635,19.4834969 C34.5603815,19.6842928 35.0548803,19.6628241 35.6105508,19.3483701 C37.9988133,17.9971022 40.5894873,17.2908437 43.3332508,17.1222509 C44.3626025,17.0591076 45.3925948,17.0104872 46.4222668,16.9552368 C46.482798,17.0215373 46.5433293,17.0878378 46.6038605,17.1541383 C46.2787852,18.0135195 46.0782955,18.9486727 45.6001305,19.7155488 C44.7991322,21.0008319 43.8450442,22.1964514 42.9101725,23.3955439 C42.3202329,24.152317 42.2898072,24.4582466 42.9796714,25.1405106 C44.0884504,26.2379423 44.9906544,27.4815508 45.6891659,28.8662847 C45.912395,29.3089196 46.2342675,29.5450758 46.7262041,29.666311 C48.6241314,30.1335719 50.5089276,30.6513475 52.405894,31.1205027 C52.8533129,31.2313193 53.0582865,31.4466381 53.069496,31.8908517 C53.1601327,35.3959396 52.5458525,38.6595042 49.7028049,41.1100981 M54.96358,31.7386762 C54.8636554,30.2769073 54.3038213,29.6981984 52.8920657,29.3382813 C51.1465876,28.8931206 49.4033513,28.4381727 47.663638,27.9737533 C47.4942145,27.92829 47.2998099,27.8203149 47.2053299,27.6829781 C46.4116978,26.5265074 45.6385631,25.3561452 44.8125836,24.1204296 C44.9381299,23.9606769 45.1331751,23.7071564 45.3339851,23.4586872 C46.9222101,21.4917715 48.1802355,19.3992005 48.4611134,16.8074813 C48.583457,15.6778466 48.2817615,15.1161864 46.9760157,15.1307093 C45.8047838,15.1436537 44.6319506,15.1682796 43.4632809,15.2399474 C40.5151843,15.4202217 37.6993597,16.1002757 35.0913912,17.5052154 C34.7583091,17.6848583 34.4723069,17.680754 34.1180869,17.5664645 C28.4188605,15.7280455 22.6597434,15.5048338 16.870841,17.0859435 C11.6593877,18.5091949 7.15349188,21.0949155 3.84188744,25.3880326 C-0.194490776,30.6207229 -1.12167597,36.3803446 1.3994991,42.5185107 C3.14625835,46.770269 6.31854481,49.8384049 10.2812606,52.1399804 C10.7831256,52.4307556 10.9490261,52.6738575 10.8215582,53.2718251 C10.4109705,55.1954876 11.5405671,57.0951556 13.3667536,57.7010162 C15.2063915,58.3109811 17.2183353,57.4560199 18.1195785,55.6823229 C18.1868355,55.5497219 18.2585763,55.4199623 18.3434481,55.2605253 C23.1148488,56.2534546 27.849098,56.1344294 32.5737391,54.9069225 C32.6554083,55.1168741 32.7204233,55.2911498 32.7912033,55.4628998 C33.251433,56.5770644 34.0441043,57.3518334 35.2012442,57.7531095 C35.451376,57.8399316 35.7050308,57.9175979 35.9574046,58 L36.8807465,58 C37.0235875,57.9526425 37.1645068,57.8977078 37.3095897,57.8582432 C38.8552186,57.4361298 39.8045025,56.4514091 40.2099659,54.9255498 C40.4623396,53.9749265 40.216051,53.0842893 39.9246042,52.1996509 C39.8224377,51.889617 39.8954595,51.7194456 40.1551995,51.5363299 C44.3145618,48.6086879 48.052127,45.1929478 51.7567042,41.7427946 C52.2937991,41.2426991 52.7735654,40.63747 53.1258637,39.9984592 C54.5440247,37.427893 55.1627887,34.659688 54.96358,31.7386762" id="Fill-1"></path>
                        <path d="M24.9949366,1.97687265 C27.9114997,1.97196645 30.3089107,4.51665031 30.3038084,7.61181012 C30.299344,10.6045938 27.8713196,13.1810045 25.0392623,13.1986668 C22.094637,13.2169833 19.6385503,10.6565996 19.6404636,7.57027094 C19.642377,4.49179221 22.045528,1.98177886 24.9949366,1.97687265 M26.0367485,15.0371845 C29.5238048,14.4320862 32.0439882,11.465796 32.1501784,7.84142041 C32.2592386,4.1254624 29.9265622,1.00969654 26.4296203,0.199518914 C26.1534621,0.135411198 25.8785793,0.0663972781 25.6027399,0 L24.3386621,0 C24.0634605,0.0667243582 23.7882589,0.135738278 23.5124195,0.200173075 C19.5180101,1.13365993 17.0657501,5.11978617 17.9490739,9.24590274 C18.7635176,13.0504995 22.4151209,15.6655056 26.0367485,15.0371845" id="Fill-3"></path>
                        <path d="M31.7013202,24.3415494 C31.4365186,24.1656786 31.1507952,24.0161092 30.8610123,23.8865035 C28.8534539,22.9925728 26.7297326,22.7222705 24.1519764,22.6956522 C23.6639046,22.7349458 22.7639539,22.77012 21.8743079,22.8864165 C20.3454534,23.0870043 18.8625019,23.4717019 17.5091409,24.2572582 C16.9583036,24.5769945 16.7806242,25.1166485 17.0407419,25.5954607 C17.2999227,26.0730054 17.8267155,26.1702889 18.4128388,25.8869943 C18.9174608,25.6423596 19.4217704,25.3682547 19.9566822,25.2224879 C23.6411092,24.2176476 27.2712019,24.1954657 30.7838826,25.9405478 C31.2641478,26.1788448 31.7662716,26.0441689 32.0192071,25.6296842 C32.2802615,25.200306 32.1550428,24.6425895 31.7013202,24.3415494" id="Fill-5"></path>
                    </g>
                </g>
            </g>
        </g>
    </g>
</svg>