<?xml version="1.0" encoding="UTF-8"?>
<svg width="96px" height="62px" viewBox="0 0 96 62" version="1.1" xmlns="http://www.w3.org/2000/svg" xmlns:xlink="http://www.w3.org/1999/xlink">
    <!-- Generator: Sketch 46.2 (44496) - http://www.bohemiancoding.com/sketch -->
    <title>paid@1x</title>
    <desc>Created with Sketch.</desc>
    <defs>
        <linearGradient x1="98.8532841%" y1="69.8896882%" x2="-7.39896374%" y2="-5.68711582%" id="linearGradient-1">
            <stop stop-color="#8836FF" offset="0%"></stop>
            <stop stop-color="#4351F8" offset="100%"></stop>
        </linearGradient>
    </defs>
    <g id="Page-1" stroke="none" stroke-width="1" fill="none" fill-rule="evenodd">
        <g id="Magestore-POS-viewmoreReleasenote" transform="translate(-912.000000, -1109.000000)" fill="url(#linearGradient-1)">
            <g id="paid" transform="translate(912.000000, 1109.000000)">
                <path d="M31.2198472,15.3999839 C31.2198472,15.9516936 30.773922,16.3976507 30.2222518,16.3976507 L13.4696326,16.3976507 C12.9179623,16.3976507 12.4720372,15.9516936 12.4720372,15.3999839 C12.4720372,14.8482742 12.9179623,14.4023172 13.4696326,14.4023172 L30.2222518,14.4023172 C30.773922,14.4023172 31.2198472,14.8482742 31.2198472,15.3999839 Z M25.6960618,36.4396782 C25.6960618,36.9913879 25.2501366,37.4373449 24.6984664,37.4373449 L0.997595379,37.4373449 C0.445925135,37.4373449 1.13686838e-13,36.9913879 1.13686838e-13,36.4396782 C1.13686838e-13,35.8879685 0.445925135,35.4420114 0.997595379,35.4420114 L24.6984664,35.4420114 C25.2501366,35.4420114 25.6960618,35.8879685 25.6960618,36.4396782 Z M6.59370642,25.9846295 C6.59370642,25.4329198 7.03963155,24.9869627 7.5913018,24.9869627 L24.1473947,24.9869627 C24.6980674,24.9869627 25.1449901,25.4329198 25.1449901,25.9846295 C25.1449901,26.5363392 24.6980674,26.9822962 24.1473947,26.9822962 L7.5913018,26.9822962 C7.03963155,26.9822962 6.59370642,26.5363392 6.59370642,25.9846295 Z M13.647005,46.2867487 C14.1986753,46.2867487 14.6446004,46.7327058 14.6446004,47.2844155 C14.6446004,47.8361252 14.1986753,48.2820822 13.647005,48.2820822 L7.219498,48.2820822 C6.66782776,48.2820822 6.22190262,47.8361252 6.22190262,47.2844155 C6.22190262,46.7327058 6.66782776,46.2867487 7.219498,46.2867487 L13.647005,46.2867487 Z M30.0294166,47.2844155 C30.0294166,47.8361252 29.5834915,48.2820822 29.0318212,48.2820822 L17.8697265,48.2820822 C17.3180563,48.2820822 16.8721311,47.8361252 16.8721311,47.2844155 C16.8721311,46.7327058 17.3180563,46.2867487 17.8697265,46.2867487 L29.0318212,46.2867487 C29.5834915,46.2867487 30.0294166,46.7327058 30.0294166,47.2844155 Z M65.0027164,60.0046665 C49.0112624,60.0046665 36.0006235,46.9930968 36.0006235,31.0004988 C36.0006235,15.0069032 49.0112624,1.99533349 65.0027164,1.99533349 C80.9941703,1.99533349 94.0048092,15.0069032 94.0048092,31.0004988 C94.0048092,46.9930968 80.9941703,60.0046665 65.0027164,60.0046665 M65.0027164,0 C82.0955156,0 96,13.9064768 96,31.0004988 C96,48.0945209 82.0955156,62 65.0027164,62 C47.9099171,62 34.0054327,48.0945209 34.0054327,31.0004988 C34.0054327,13.9064768 47.9099171,0 65.0027164,0 Z M73.3068998,33.9776362 C71.7017689,32.5988607 69.1708694,31.3028916 65.7810403,30.1256449 C62.2425695,28.9723421 59.8662973,27.7791327 58.7210578,26.5769442 C57.5917798,25.3947091 57.0201577,23.7685124 57.0201577,21.7412535 C57.0201577,19.748913 57.7374287,18.0219519 59.1510214,16.6082581 C60.564614,15.195562 62.655574,14.4782396 65.3660406,14.4782396 C68.0076732,14.4782396 70.0926475,15.3053053 71.5621055,16.9354928 C73.0365515,18.5756569 73.784748,20.7186451 73.784748,23.3065926 L73.784748,23.5560093 L75.3360088,23.5560093 L75.4467419,23.278658 L75.463701,23.1898656 C75.5135808,20.042227 74.7015382,17.5261115 73.0505178,15.710358 C71.4443893,13.9434902 69.1868309,12.9458235 66.3386961,12.7432971 L66.3386961,8.22486443 L64.5150917,8.22486443 L64.5150917,12.7393065 C61.735791,12.8909518 59.4832207,13.7728892 57.8152412,15.3611747 C56.0933916,17.0003411 55.2204956,19.1632826 55.2204956,21.7891415 C55.2204956,24.5327251 56.0315406,26.6378019 57.6296884,28.0455097 C59.1949156,29.4252828 61.7477622,30.7052892 65.2104157,31.8486153 C68.5802929,33.0677641 70.9156637,34.2849175 72.152682,35.466155 C73.3637628,36.6254437 73.9782815,38.2306895 73.9782815,40.2340043 C73.9782815,42.2073892 73.2031499,43.929362 71.6738362,45.3490418 C70.1405321,46.7747075 68.0755097,47.4980159 65.5356318,47.4980159 C62.9049728,47.4980159 60.6085082,46.7936632 58.7120794,45.4039134 C56.8385953,44.0301263 55.8888845,41.7654228 55.8888845,38.6686652 L55.8888845,38.4192485 L54.3525876,38.4192485 L54.2468425,38.7355089 L54.2338738,38.8083386 C54.1530685,42.3091512 55.1716134,44.9360077 57.2645685,46.6180739 C59.2807088,48.2382847 61.8096131,49.1282034 64.7794545,49.2628884 L64.7794545,53.7763328 L66.6030589,53.7763328 L66.6030589,49.2339561 C69.3205087,49.0354204 71.5371656,48.147497 73.1941715,46.5941299 C74.9070428,44.9858911 75.776946,42.8299332 75.776946,40.187114 C75.776946,37.4744581 74.945949,35.385344 73.3068998,33.9776362 Z"></path>
            </g>
        </g>
    </g>
</svg>