<?xml version="1.0" encoding="UTF-8"?>
<svg width="83px" height="92px" viewBox="0 0 83 92" version="1.1" xmlns="http://www.w3.org/2000/svg" xmlns:xlink="http://www.w3.org/1999/xlink">
    <!-- Generator: Sketch 46.2 (44496) - http://www.bohemiancoding.com/sketch -->
    <title>Group 19@1x</title>
    <desc>Created with Sketch.</desc>
    <defs>
        <path d="M48.823121,2.58386203 L75.1541834,17.7646569 L75.1541834,17.7646569 C79.7996743,20.4429477 82.6621248,25.3973601 82.6621248,30.7596196 L82.6621248,61.0845427 L82.6621248,61.0845427 C82.6621248,66.4468022 79.7996743,71.4012146 75.1541834,74.0795055 L48.823121,89.2603003 L48.823121,89.2603003 C44.1861429,91.9336833 38.4759819,91.9336833 33.8390038,89.2603003 L7.50794135,74.0795055 L7.50794135,74.0795055 C2.86245053,71.4012146 -8.8817842e-16,66.4468022 -3.55271368e-15,61.0845427 L-2.48689958e-14,30.7596196 L-2.84217094e-14,30.7596196 C-3.10862447e-14,25.3973601 2.86245053,20.4429477 7.50794135,17.7646569 L33.8390038,2.58386203 L33.8390038,2.58386203 C38.4759819,-0.0895209513 44.1861429,-0.0895209513 48.823121,2.58386203 Z" id="path-1"></path>
    </defs>
    <g id="Page-1" stroke="none" stroke-width="1" fill="none" fill-rule="evenodd">
        <g id="Magestore-POS-viewmoreReleasenote" transform="translate(-1072.000000, -4441.000000)">
            <g id="Group-19" transform="translate(1072.000000, 4441.000000)">
                <g id="userguide-copy-4">
                    <g id="Page-1">
                        <mask id="mask-2" fill="white">
                            <use xlink:href="#path-1"></use>
                        </mask>
                        <use id="Mask" fill="#923DFD" xlink:href="#path-1"></use>
                    </g>
                </g>
                <g id="Storecredit" transform="translate(15.000000, 26.000000)" fill="#FFFFFF">
                    <g>
                        <path d="M11.528352,30.215511 L11.5227977,30.215511 L11.5172434,30.215511 C10.1802034,30.2468339 8.92030629,29.7447472 7.96743771,28.8102827 C7.02074057,27.8810386 6.482592,26.5952669 6.49246629,25.2824717 C6.51375771,22.3513299 8.63672914,20.231511 11.5447063,20.231511 L11.5727863,20.231511 C14.3949806,20.2447157 16.5367749,22.3998496 16.5549806,25.2440858 C16.5636206,26.6054008 16.0322606,27.8776606 15.0587177,28.8259441 C14.100912,29.7585661 12.8511977,30.2588102 11.528352,30.215511 M11.9032663,18.8741882 C10.1505806,18.781448 8.491392,19.3679835 7.22810057,20.5146449 C5.95678629,21.6686764 5.18844343,23.2753535 5.12024914,24.9231803 C5.04773486,26.6763378 5.65901486,28.332763 6.84146057,29.5869047 C8.02421486,30.8416606 9.66951771,31.5823535 11.3552434,31.6207394 C11.4058491,31.6219677 11.4558377,31.6219677 11.5058263,31.6219677 C13.2075977,31.6219677 14.805072,30.9737079 16.0177577,29.7871252 C17.2406263,28.5901016 17.9367634,26.9431961 17.9275063,25.2674244 C17.9509577,21.9115819 15.2491063,19.0433929 11.9032663,18.8741882" id="Fill-1"></path>
                        <path d="M13.5530434,26.6486386 C13.1222777,27.2207409 12.6615806,27.5112449 12.1848377,27.5112449 C11.5109177,27.5112449 11.0480606,27.174678 10.7725063,26.4831189 L12.7572377,26.4831189 L12.7572377,25.529922 L10.555272,25.529922 C10.5515691,25.4549929 10.5515691,25.3573394 10.5515691,25.2345047 C10.5515691,25.0855677 10.5577406,24.9753236 10.5636034,24.902237 L12.7572377,24.902237 L12.7572377,23.9579457 L10.7851577,23.9579457 C11.0678091,23.2977094 11.5022777,22.9768039 12.1101634,22.9768039 C12.6393634,22.9768039 13.0895691,23.243048 13.4867006,23.7911976 L13.5326777,23.8541504 L14.5244263,23.1220559 L14.4818434,23.0606386 C13.898952,22.2241346 13.1102434,21.800048 12.1382434,21.800048 C11.4809863,21.800048 10.8984034,22.0094811 10.4065406,22.4225126 C9.96034629,22.7937803 9.63110057,23.3103 9.42682629,23.9579457 L8.52795771,23.9579457 L8.52795771,24.902237 L9.25032343,24.902237 C9.24230057,25.0075677 9.23859771,25.1251819 9.23859771,25.2529299 C9.23859771,25.3662449 9.23859771,25.4580638 9.24168343,25.529922 L8.52795771,25.529922 L8.52795771,26.4831189 L9.39720343,26.4831189 C9.58944343,27.1439693 9.922392,27.6761504 10.3874091,28.064615 C10.8798891,28.4779535 11.4812949,28.6873866 12.175272,28.6873866 C13.0982091,28.6873866 13.8807463,28.235048 14.5006663,27.3432685 L14.5432491,27.2821583 L13.5990206,26.5875283 L13.5530434,26.6486386 Z" id="Fill-3"></path>
                        <path d="M45.2506114,27.2136165 C39.1572514,27.2105457 36.5627829,27.2099315 30.4694229,27.2093173 L29.2113771,27.2087031 C27.4923257,27.208089 25.77204,27.2071677 24.0520629,27.2142307 C23.7758914,27.2148449 23.4886114,27.2323488 23.2544057,27.3514984 C22.8125314,27.5759787 22.61196,28.0028291 22.7310686,28.4665299 C22.8708514,29.0100732 23.2661314,29.2971992 23.8749429,29.2971992 L23.8771029,29.2971992 C27.0711257,29.2929 30.2642229,29.2935142 33.4588629,29.2935142 L36.29988,29.2935142 C36.31068,29.2959709 36.3217886,29.2971992 36.3335143,29.2971992 L37.27836,29.2971992 L40.0480971,29.2971992 C41.8118914,29.2971992 43.5793886,29.2978134 45.34596,29.2925929 C45.7579029,29.2913646 46.0856057,29.161774 46.2938914,28.9182543 C46.48644,28.6925457 46.5586457,28.3903724 46.5034114,28.0424433 C46.41516,27.4930654 45.9936514,27.2136165 45.2506114,27.2136165" id="Fill-5"></path>
                        <path d="M34.475328,24.5602039 C35.1436937,24.5620465 35.8117509,24.5626606 36.479808,24.5626606 C36.9713623,24.5626606 37.4632251,24.5626606 37.9541623,24.5620465 L39.1640709,24.5614323 C39.469248,24.5614323 39.6432823,24.5614323 39.7373966,24.5620465 L39.7373966,24.5626606 L39.7525166,24.5626606 C39.7568366,24.5626606 39.7657851,24.5645031 39.7660937,24.5626606 C39.7768937,24.5626606 39.7892366,24.5626606 39.8021966,24.5620465 L39.8336709,24.5620465 C39.9277851,24.5614323 40.102128,24.5608181 40.4082309,24.5602039 C40.8053623,24.5589756 41.1071451,24.4557945 41.3055566,24.2537315 C41.484528,24.071322 41.5718537,23.8176685 41.5656823,23.4986055 C41.5524137,22.8537236 41.1333737,22.4836843 40.4165623,22.4830701 C37.7341509,22.4812276 37.5993051,22.4812276 35.6630194,22.4842984 L34.4845851,22.4855268 C33.7501851,22.4867551 33.2746766,22.8921094 33.2731337,23.5188732 C33.272208,23.8327157 33.3869966,24.0971173 33.6054651,24.2832118 C33.8174537,24.4637787 34.1183109,24.5595898 34.475328,24.5602039" id="Fill-7"></path>
                        <path d="M23.8826571,24.5608181 C24.7151829,24.5632748 25.5474,24.5645031 26.3799257,24.5645031 C27.4148743,24.5645031 28.4507486,24.5626606 29.4856971,24.5589756 C30.18708,24.5571331 30.6221657,24.1594559 30.6215486,23.5207157 C30.6209314,22.8779835 30.1963371,22.4910543 29.4863143,22.4861409 C28.8287486,22.4815346 28.1708743,22.4824559 27.5139257,22.4836843 L26.7196629,22.4842984 C26.7082457,22.4818417 26.6962114,22.4803063 26.6838686,22.4803063 L25.8673886,22.4796921 C25.2055029,22.4784638 24.5439257,22.4784638 23.88204,22.4818417 C23.5129886,22.4842984 23.18652,22.6132748 22.9634229,22.8448181 C22.7776629,23.0373614 22.6804629,23.2891724 22.6894114,23.5544953 C22.7094686,24.1355031 23.2115143,24.5583614 23.8826571,24.5608181" id="Fill-9"></path>
                        <g id="Group-13" transform="translate(0.000000, 0.013819)">
                            <path d="M51.4527737,36.8502402 L2.49699086,36.8502402 C2.14089943,36.8502402 1.85145943,36.5539016 1.85145943,36.1893898 L1.85145943,13.3750039 L51.9060651,13.3750039 C51.9727166,13.3750039 52.0365909,13.3636417 52.0983051,13.3479803 L52.0983051,36.1893898 C52.0983051,36.5539016 51.8085566,36.8502402 51.4527737,36.8502402 L51.4527737,36.8502402 Z M2.49699086,2.13563386 L51.4527737,2.13563386 C51.8085566,2.13563386 52.0983051,2.43258661 52.0983051,2.79648425 L52.0983051,6.79290945 L1.85145943,6.79290945 L1.85145943,2.79648425 C1.85145943,2.43258661 2.14089943,2.13563386 2.49699086,2.13563386 L2.49699086,2.13563386 Z M48.1732766,8.59458661 C48.2630709,8.51965748 48.3291051,8.42783858 48.3750823,8.32834252 L52.0983051,8.32834252 L52.0983051,8.42661024 L48.0155966,11.8395709 L44.291448,11.8395709 L48.1732766,8.59458661 Z M42.0502937,8.59458661 C42.140088,8.51965748 42.2061223,8.42783858 42.252408,8.32834252 L46.0931966,8.32834252 L41.8932309,11.8395709 L38.1684651,11.8395709 L42.0502937,8.59458661 Z M35.9276194,8.59458661 C36.0174137,8.51965748 36.0831394,8.42783858 36.1294251,8.32834252 L39.9702137,8.32834252 L35.770248,11.8395709 L32.0454823,11.8395709 L35.9276194,8.59458661 Z M29.8049451,8.59458661 C29.8947394,8.51965748 29.9607737,8.42783858 30.0067509,8.32834252 L33.8472309,8.32834252 L29.6472651,11.8395709 L25.9231166,11.8395709 L29.8049451,8.59458661 Z M23.6819623,8.59458661 C23.7717566,8.51965748 23.8377909,8.42783858 23.883768,8.32834252 L27.724248,8.32834252 L23.5242823,11.8395709 L19.8001337,11.8395709 L23.6819623,8.59458661 Z M17.5589794,8.59458661 C17.6487737,8.51965748 17.714808,8.42783858 17.7607851,8.32834252 L21.6018823,8.32834252 L17.401608,11.8395709 L13.6771509,11.8395709 L17.5589794,8.59458661 Z M11.4359966,8.59458661 C11.5257909,8.51965748 11.5918251,8.42783858 11.6381109,8.32834252 L15.4788994,8.32834252 L11.2789337,11.8395709 L7.554168,11.8395709 L11.4359966,8.59458661 Z M1.85145943,11.4885709 L5.31363086,8.59458661 C5.40342514,8.51965748 5.46915086,8.42783858 5.51543657,8.32834252 L9.35591657,8.32834252 L5.15595086,11.8395709 L1.85145943,11.8395709 L1.85145943,11.4885709 Z M1.85145943,8.32834252 L3.23262514,8.32834252 L1.85145943,9.48329528 L1.85145943,8.32834252 Z M52.0983051,11.8662874 C52.0365909,11.8503189 51.9727166,11.8395709 51.9060651,11.8395709 L50.4147394,11.8395709 L52.0983051,10.4318858 L52.0983051,11.8662874 Z M51.4527737,0.293114173 L2.49699086,0.293114173 C1.12014514,0.293114173 3.08571429e-05,1.41643701 3.08571429e-05,2.79648425 L3.08571429e-05,36.1893898 C3.08571429e-05,37.5700512 1.12014514,38.6927598 2.49699086,38.6927598 L51.4527737,38.6927598 C52.8296194,38.6927598 53.9497337,37.5700512 53.9497337,36.1893898 L53.9497337,2.79648425 C53.9497337,1.41643701 52.8296194,0.293114173 51.4527737,0.293114173 L51.4527737,0.293114173 Z" id="Fill-11"></path>
                        </g>
                    </g>
                </g>
            </g>
        </g>
    </g>
</svg>