<?xml version="1.0" encoding="UTF-8"?>
<svg width="83px" height="92px" viewBox="0 0 83 92" version="1.1" xmlns="http://www.w3.org/2000/svg" xmlns:xlink="http://www.w3.org/1999/xlink">
    <!-- Generator: Sketch 46.2 (44496) - http://www.bohemiancoding.com/sketch -->
    <title>Group 17@1x</title>
    <desc>Created with Sketch.</desc>
    <defs>
        <path d="M48.823121,2.58386203 L75.1541834,17.7646569 L75.1541834,17.7646569 C79.7996743,20.4429477 82.6621248,25.3973601 82.6621248,30.7596196 L82.6621248,61.0845427 L82.6621248,61.0845427 C82.6621248,66.4468022 79.7996743,71.4012146 75.1541834,74.0795055 L48.823121,89.2603003 L48.823121,89.2603003 C44.1861429,91.9336833 38.4759819,91.9336833 33.8390038,89.2603003 L7.50794135,74.0795055 L7.50794135,74.0795055 C2.86245053,71.4012146 -8.8817842e-16,66.4468022 -3.55271368e-15,61.0845427 L-2.48689958e-14,30.7596196 L-2.84217094e-14,30.7596196 C-3.10862447e-14,25.3973601 2.86245053,20.4429477 7.50794135,17.7646569 L33.8390038,2.58386203 L33.8390038,2.58386203 C38.4759819,-0.0895209513 44.1861429,-0.0895209513 48.823121,2.58386203 Z" id="path-1"></path>
        <polygon id="path-3" points="0 39.4082701 0 0.105620697 51.6304183 0.105620697 51.6304183 39.4082701"></polygon>
    </defs>
    <g id="Page-1" stroke="none" stroke-width="1" fill="none" fill-rule="evenodd">
        <g id="Magestore-POS-viewmoreReleasenote" transform="translate(-457.000000, -4441.000000)">
            <g id="Group-17" transform="translate(457.000000, 4441.000000)">
                <g id="userguide-copy-2">
                    <g id="Page-1">
                        <mask id="mask-2" fill="white">
                            <use xlink:href="#path-1"></use>
                        </mask>
                        <use id="Mask" fill="#0B7FFF" xlink:href="#path-1"></use>
                    </g>
                </g>
                <g id="inventory" transform="translate(12.000000, 18.000000)">
                    <g>
                        <g id="Group-3" transform="translate(0.000000, 5.000000)">
                            <mask id="mask-4" fill="white">
                                <use xlink:href="#path-3"></use>
                            </mask>
                            <g id="Clip-2"></g>
                            <path d="M49.8572695,28.1470394 L41.4992328,36.4798438 L5.01661259,0.105620697 L0.304168336,4.80369682 C-0.101476261,5.20813256 -0.101476261,5.86379884 0.304168336,6.26823458 C0.709812933,6.67267031 1.36743901,6.67267031 1.7730836,6.26823458 L5.01661259,3.03404703 L41.4995584,39.4082701 L51.3261848,29.610928 C51.7318294,29.2064922 51.7318294,28.550826 51.3261848,28.1463902 C50.9202146,27.7426037 50.2629141,27.7426037 49.8572695,28.1470394" id="Fill-1" fill="#FFFFFF" mask="url(#mask-4)"></path>
                        </g>
                        <path d="M30.4996904,52.873059 C28.0048347,52.873059 25.9753263,50.6867676 25.9753263,48.0003334 C25.9753263,45.3132324 28.0048347,43.1272745 30.4996904,43.1272745 C32.9951653,43.1272745 35.0246737,45.3132324 35.0246737,48.0003334 C35.0243641,50.6867676 32.9951653,52.873059 30.4996904,52.873059 M30.4996904,41 C26.9156187,41 24,44.1402305 24,48.0003334 C24,51.8601029 26.9156187,55 30.4996904,55 C34.0840716,55 37,51.8597695 37,48.0003334 C37,44.140564 34.0840716,41 30.4996904,41" id="Fill-4" fill="#FFFFFF"></path>
                        <path d="M33.8796724,27.2806372 L40.5001598,20.4814872 L48.0536459,28.2395169 L41.4334782,35.0386669 L33.8796724,27.2806372 Z M24.8840177,18.0411203 L31.5041854,11.2422986 L39.0579912,19 L32.4378234,25.79915 L24.8840177,18.0411203 Z M39.5668415,2.96231794 L47.1203276,10.7203476 L40.5001598,17.5194976 L32.9463541,9.76146789 L39.5668415,2.96231794 Z M56.1159823,19.9588797 L49.4958146,26.7580297 L41.9423285,19.0003283 L48.5624962,12.20085 L56.1159823,19.9588797 Z M59,19.9588797 L49.4967735,10.1990532 C49.4504272,10.1081221 49.3900172,10.0230999 49.3155435,9.94628449 C49.2413894,9.87012561 49.1582857,9.80775411 49.0694287,9.76015481 L39.5665218,0 L22,18.0411203 L41.4337978,38 L59,19.9588797 Z" id="Fill-6" fill="#FFFFFF"></path>
                    </g>
                </g>
            </g>
        </g>
    </g>
</svg>