<?xml version="1.0" encoding="UTF-8"?>
<svg width="86px" height="87px" viewBox="0 0 86 87" version="1.1" xmlns="http://www.w3.org/2000/svg" xmlns:xlink="http://www.w3.org/1999/xlink">
    <!-- Generator: sketchtool 48.2 (47327) - http://www.bohemiancoding.com/sketch -->
    <title>A7E211E6-CA76-4988-B65D-48BE4F342C8B</title>
    <desc>Created with sketchtool.</desc>
    <defs>
        <linearGradient x1="100%" y1="49.9996036%" x2="0%" y2="50%" id="linearGradient-1">
            <stop stop-color="#A445B2" offset="0%"></stop>
            <stop stop-color="#D41872" offset="51.7099809%"></stop>
            <stop stop-color="#FF0066" offset="100%"></stop>
        </linearGradient>
    </defs>
    <g id="Magento-ERP" stroke="none" stroke-width="1" fill="none" fill-rule="evenodd" transform="translate(-1189.000000, -2546.000000)">
        <path d="M1241.2985,2574.4516 C1237.89032,2571.27863 1235.98581,2566.75057 1236.07314,2562.02912 C1236.15156,2557.78522 1237.8228,2553.78687 1240.77863,2550.77054 C1243.73445,2547.75454 1247.64122,2546.06094 1251.77911,2546.00184 C1256.08161,2545.93648 1260.13448,2547.61128 1263.19465,2550.70703 C1266.25564,2553.8033 1267.94141,2557.93679 1267.94141,2562.34596 C1267.94141,2566.93295 1266.04465,2571.33705 1262.73734,2574.42891 C1261.44004,2575.64175 1260.6958,2577.36125 1260.6958,2579.14663 L1260.6958,2581.30829 C1260.6958,2582.71232 1260.05457,2583.96478 1259.05758,2584.77644 L1259.05758,2589.70296 C1259.05758,2591.99941 1257.2361,2593.86777 1254.99711,2593.86777 L1249.0143,2593.86777 C1246.77531,2593.86777 1244.954,2591.99941 1244.954,2589.70296 L1244.954,2584.7766 C1243.95683,2583.96511 1243.31545,2582.71249 1243.31545,2581.30846 L1243.31545,2579.1468 C1243.31545,2577.35634 1242.58029,2575.64513 1241.2985,2574.4516 Z M1252.00694,2549.38701 C1251.94586,2549.38701 1251.88593,2549.38751 1251.82518,2549.38836 C1245.08739,2549.48455 1239.50213,2555.18412 1239.37434,2562.09331 C1239.305,2565.83731 1240.81528,2569.42771 1243.51769,2571.94381 C1245.48741,2573.77779 1246.61731,2576.40311 1246.61731,2579.14663 L1246.61731,2581.30829 C1246.61731,2581.88186 1247.07214,2582.3484 1247.63131,2582.3484 L1250.35486,2582.3484 L1250.35486,2570.10525 C1250.35486,2569.17014 1251.09414,2568.41182 1252.00579,2568.41182 C1252.91743,2568.41182 1253.65672,2569.17014 1253.65672,2570.10525 L1253.65672,2582.3484 L1256.3801,2582.3484 C1256.93927,2582.3484 1257.3941,2581.88186 1257.3941,2581.30829 L1257.3941,2579.14663 C1257.3941,2576.41056 1258.53109,2573.77864 1260.5132,2571.92569 C1263.13571,2569.47411 1264.63971,2565.98243 1264.63971,2562.34596 C1264.63971,2558.85039 1263.30295,2555.57327 1260.87641,2553.11848 C1258.49345,2550.70805 1255.34958,2549.38701 1252.00694,2549.38701 Z M1255.75571,2589.70279 L1255.75571,2585.73509 L1248.25586,2585.73509 L1248.25586,2589.70279 C1248.25586,2590.1319 1248.59612,2590.48075 1249.0143,2590.48075 L1254.99711,2590.48075 C1255.41529,2590.48075 1255.75571,2590.1319 1255.75571,2589.70279 Z M1265.7491,2599.25883 C1266.54819,2598.90275 1267.3804,2598.72035 1268.20402,2598.69532 C1270.8068,2598.61619 1273.32379,2600.10859 1274.43867,2602.65723 C1275.90634,2606.01269 1274.39614,2609.94775 1271.07194,2611.4293 L1248.61772,2621.43708 C1244.14197,2623.43195 1239.06132,2623.3161 1234.67974,2621.11814 L1226.46038,2616.99635 C1222.97905,2615.25056 1218.94313,2615.15805 1215.38753,2616.74301 L1215.19361,2616.82939 C1215.75006,2618.83926 1214.78416,2621.01473 1212.85371,2621.90185 L1191.44877,2632.81702 C1191.20894,2632.93935 1190.94801,2633 1190.68776,2633 C1190.37958,2633 1190.07224,2632.91481 1189.80135,2632.74615 C1189.30178,2632.43505 1188.99832,2631.88441 1189.00001,2631.29152 L1189.08355,2601.4251 C1189.08541,2600.75214 1189.47967,2600.1434 1190.08962,2599.87149 L1201.03133,2594.99461 C1202.96448,2594.13322 1205.19671,2594.84367 1206.31805,2596.57208 L1214.89184,2592.75083 C1219.75679,2590.58268 1225.18545,2590.40737 1230.17766,2592.25828 L1246.70651,2598.38534 C1249.91864,2599.57641 1251.63104,2603.20429 1250.52337,2606.47235 C1249.62362,2609.12725 1247.14988,2610.80472 1244.51024,2610.80472 C1243.83817,2610.80472 1243.15581,2610.69619 1242.48544,2610.46722 L1229.70374,2606.10316 C1228.82071,2605.80177 1228.34695,2604.83474 1228.64569,2603.94353 C1228.94442,2603.05198 1229.90205,2602.57358 1230.78525,2602.8753 L1243.56695,2607.23936 C1245.11276,2607.76734 1246.80102,2606.92826 1247.32946,2605.36971 C1247.84811,2603.83944 1247.04642,2602.14117 1245.5428,2601.58372 L1229.01395,2595.45649 C1224.84756,2593.91225 1220.31611,2594.05774 1216.25504,2595.86794 L1207.73441,2599.66551 L1214.0245,2613.62607 C1218.50043,2611.63068 1223.5804,2611.74721 1227.96265,2613.94466 L1236.18201,2618.06662 C1239.66301,2619.81276 1243.6986,2619.9051 1247.25469,2618.31997 L1269.70891,2608.31202 C1271.33017,2607.58965 1272.0667,2605.67007 1271.35093,2604.03383 C1270.63684,2602.40116 1268.7425,2601.65749 1267.12378,2602.37118 L1256.16502,2607.4726 C1255.31861,2607.86684 1254.31575,2607.49322 1253.92554,2606.63897 C1253.53533,2605.78439 1253.90495,2604.77239 1254.75153,2604.37815 C1262.07762,2600.96777 1265.74348,2599.26133 1265.7491,2599.25883 Z M1211.44545,2618.80484 C1211.89321,2618.60534 1212.09658,2618.07548 1211.89895,2617.62349 L1211.46418,2616.62954 C1211.46368,2616.62886 1211.46334,2616.62784 1211.46283,2616.62699 L1203.56482,2598.56968 C1203.36718,2598.11769 1202.84246,2597.91273 1202.39402,2598.1119 L1192.45535,2602.54172 L1192.41433,2617.30983 L1195.85026,2615.60663 C1196.68671,2615.19161 1197.69818,2615.54019 1198.10915,2616.38489 C1198.51995,2617.22942 1198.17481,2618.25028 1197.33802,2618.66531 L1192.40387,2621.11099 L1192.38328,2628.52299 L1211.36612,2618.843 C1211.39228,2618.82972 1211.41878,2618.81677 1211.44545,2618.80484 Z M1203.01231,2612.96115 C1204.11788,2612.96115 1205.01406,2613.85849 1205.01406,2614.96504 C1205.01406,2616.07179 1204.11788,2616.96893 1203.01231,2616.96893 C1201.90694,2616.96893 1201.01055,2616.07179 1201.01055,2614.96504 C1201.01055,2613.85849 1201.90694,2612.96115 1203.01231,2612.96115 Z M1253.05618,2561.86196 C1254.16175,2561.86196 1255.05793,2562.7593 1255.05793,2563.86585 C1255.05793,2564.9726 1254.16175,2565.86974 1253.05618,2565.86974 C1251.95081,2565.86974 1251.05442,2564.9726 1251.05442,2563.86585 C1251.05442,2562.7593 1251.95081,2561.86196 1253.05618,2561.86196 Z" id="Rectangle-10" fill="url(#linearGradient-1)"></path>
    </g>
</svg>