<svg xmlns="http://www.w3.org/2000/svg" xmlns:xlink="http://www.w3.org/1999/xlink" width="100" height="111" viewBox="0 0 100 111">
    <defs>
        <path id="a" d="M57.296 2.236l34.797 20.09a15 15 0 0 1 7.5 12.99v40.18a15 15 0 0 1-7.5 12.99l-34.797 20.09a15 15 0 0 1-15 0L7.5 88.486A15 15 0 0 1 0 75.496v-40.18a15 15 0 0 1 7.5-12.99l34.796-20.09a15 15 0 0 1 15 0z"/>
        <path id="c" d="M0 .878V88h87.276V.878H0h87.276v87.123H0V.878z"/>
    </defs>
    <g fill="none" fill-rule="evenodd">
        <mask id="b" fill="#fff">
            <use xlink:href="#a"/>
        </mask>
        <use fill="#7143B4" xlink:href="#a"/>
        <g mask="url(#b)">
            <path fill="#FFF" fill-opacity=".3" d="M71.21 71.391c-1.924 1.957-3.422 3.481-4.937 5.02 1.388 1.412 2.745 2.951 4.267 4.302 1.615 1.435 2.659 3.148 3.465 5.129a10.517 10.517 0 0 0 2.155 3.262c4.017 4.13 8.133 8.165 12.191 12.256.56.567 1.005 1.25 1.578 1.977 2.687-2.932 5.081-5.546 7.515-8.2-.383-.416-.66-.737-.956-1.034-4.34-4.346-8.669-8.707-13.046-13.015-.651-.64-1.49-1.2-2.344-1.505-2.419-.863-4.582-2.038-6.252-4.046-1.154-1.39-2.38-2.72-3.636-4.146m-49.58-18.63c.042 13.786 11.476 25.152 25.29 25.136 13.75-.014 25.501-11.761 25.446-25.434-.055-13.726-11.536-24.976-25.457-24.947-13.963.03-25.32 11.373-25.278 25.246m52.88 14.235c2.022 2.102 3.825 4.218 5.896 6.03.98.857 2.49 1.086 3.716 1.688.835.41 1.721.845 2.372 1.486 5.022 4.95 9.993 9.95 14.976 14.94 1.934 1.937 2.317 3.75 1.132 6.21-.553 1.144-1.25 2.276-2.106 3.205-2.097 2.276-4.242 4.519-6.52 6.61-2.796 2.567-5.303 2.411-8.006-.284-4.758-4.742-9.475-9.527-14.272-14.23-1.294-1.266-2.18-2.67-2.825-4.36-.472-1.235-1.311-2.377-2.17-3.406-1.495-1.79-3.13-3.463-4.655-5.129-8.435 4.278-16.769 4.89-25.282 1.986-7.024-2.397-12.451-6.901-16.307-13.225-7.644-12.543-5.276-28.492 5.663-38.569 10.699-9.858 27.229-10.787 38.992-2.226 12.09 8.796 16.64 25.117 9.396 39.274"/>
            <path fill="#FFF" fill-opacity=".7" d="M45.526 35.046c2.665-.416 4.027 2.098 3.263 3.83-.494 1.119-1.337 1.74-2.54 1.757-7.004.095-11.715 5.97-11.702 11.701.002 1.64-1.403 2.754-2.952 2.66-1.519-.088-2.635-1.394-2.594-3.032.222-9.11 7.592-16.656 16.525-16.916"/>
        </g>
    </g>
</svg>
